<svg width="137" height="120" viewBox="0 0 137 120" fill="none" xmlns="http://www.w3.org/2000/svg">
<path fill-rule="evenodd" clip-rule="evenodd" d="M37.8602 0.0800531C33.4215 0.586762 24.9386 3.52792 24.9386 4.55989C24.9386 4.72147 28.5045 4.83521 32.8622 4.81276C41.1199 4.7698 47.173 5.48837 50.421 6.89671C54.5086 8.66873 53.0233 5.36633 48.6256 2.90405C44.5317 0.612148 41.096 -0.288995 37.8602 0.0800531ZM90.8436 1.95264C78.9172 4.13227 69.6712 10.9528 67.6067 19.0934C67.0221 21.3989 67.0221 21.3989 64.8834 17.276C62.4741 12.6301 59.645 9.5684 56.6858 8.40512C54.0873 7.38291 54.1424 7.66946 57.5288 12.7702C63.6576 22.0018 63.8721 22.673 61.1435 24.0877C52.4694 28.5856 38.6891 52.5991 35.6864 68.4502C34.6322 74.0166 30.2701 78.5858 28.8955 75.5646C25.651 68.436 28.799 51.7302 35.5962 40.0012C39.7307 32.8682 47.743 21.8256 50.9778 18.8034C52.8346 17.0685 52.525 16.6506 50.2459 17.8149C47.4768 19.2291 44.4224 22.1502 40.3187 27.3091C28.5191 42.1423 24.1448 53.183 24.5334 67.1487C24.7421 74.6532 24.3715 74.535 14.7735 64.043C12.668 61.7414 10.3104 60.3799 10.3104 61.4661C10.3104 62.0987 13.5018 66.1177 14.0045 66.1177C14.868 66.1177 17.5221 69.2497 20.6267 73.9322C23.2569 77.899 39.8623 95.9481 41.9361 97.0943C42.4427 97.3745 47.1091 101.698 52.3051 106.701C60.551 114.641 65.1321 118.721 67.2113 119.976C68.755 120.908 97.4166 94.6282 103.324 86.8645C104.55 85.2536 109.646 79.7618 114.648 74.6605C132.606 56.3467 138.55 42.7974 135.166 27.89C133.116 18.861 118.541 3.65875 111.914 3.63825C111.075 3.63532 109.541 3.27896 108.506 2.84548C107.131 2.27092 105.832 2.13765 103.692 2.35244C101.769 2.54526 99.8395 2.39882 98.0797 1.9253C95.0112 1.10031 95.5164 1.09836 90.8436 1.95264ZM106.86 4.00681C108.337 4.47251 110.202 5.31557 111.005 5.87988C111.807 6.44419 114.329 7.86668 116.609 9.04119C122.298 11.9726 124.554 14.39 127.96 21.2071C131.313 27.9168 133.009 35.3808 130.644 33.0122C130.327 32.6945 129.562 32.4347 128.945 32.4347C128.074 32.4347 127.824 32.1624 127.824 31.2144C127.824 29.8382 126.275 28.0413 125.089 28.0413C124.479 28.0413 124.377 27.7426 124.632 26.6989C124.812 25.9608 125.071 24.8937 125.208 24.3284C125.782 21.9545 122.684 20.8927 120.853 22.8356C119.297 24.4861 113.73 31.66 111.078 35.4301C108.976 38.4206 105.622 41.6121 105.114 41.1045C104.996 40.9858 107.056 37.6073 109.693 33.5961C119.869 18.1122 121.303 15.0216 118.762 14.0453C117.216 13.4517 115.693 14.9616 109.053 23.6689C103.265 31.2598 101.971 32.6896 100.562 33.0518C98.6888 33.5336 94.9888 37.143 90.7656 42.6095C89.2906 44.5182 87.916 46.0851 87.7117 46.0915C85.9047 46.1476 100.136 24.0082 106.846 16.3255C111.523 10.9704 112.232 9.00312 109.484 9.00312C107.636 9.00312 92.9301 25.147 91.5897 28.6481C91.4307 29.0621 91.0909 28.9044 90.5447 28.1634C89.3096 26.4875 87.9604 26.818 85.6199 29.3701C80.3235 35.1455 84.3073 28.6554 93.0622 17.2462C97.3176 11.7002 99.5425 8.14347 99.5425 6.88548C99.5425 2.18549 79.0845 29.5361 75.2295 39.39C74.1523 42.1428 71.3267 48.2389 68.9501 52.9374C66.573 57.636 62.834 65.8795 60.6407 71.2566C57.1022 79.9317 52.0749 91.2228 50.3766 94.3089C48.6383 97.4683 48.6236 93.3487 50.3425 84.5955C52.8702 71.7257 62.5975 50.4649 73.7423 33.4526C77.3696 27.9159 77.51 27.5327 76.3466 26.3674C75.0481 25.0679 73.7496 25.498 70.9244 28.1634C60.3667 38.1242 49.6705 58.7138 45.6873 76.742C44.3171 82.9451 44.1328 83.382 42.0517 85.3644C40.2339 87.0968 39.9998 86.9104 39.4986 83.3248C38.1245 73.4992 41.9824 62.4214 54.0761 41.4657C61.9695 27.788 64.2027 24.8873 65.3115 26.8712C66.2302 28.5153 67.5579 27.2647 70.781 21.7187C77.3072 10.4891 81.3172 7.61333 94.0653 5.02218C98.0095 4.22062 101.331 3.47032 101.446 3.35511C101.893 2.90796 104.292 3.19646 106.86 4.00681ZM18.1092 6.04195C3.34929 10.5369 -5.50468 38.7247 3.83934 51.472C7.46909 56.4234 8.82171 54.831 5.91167 49.0322C-0.266314 36.7203 5.09931 19.1344 18.0502 9.2467C21.4381 6.66044 21.4678 5.01925 18.1092 6.04195ZM34.5454 19.1324C24.0804 27.0157 14.1561 47.4661 16.6005 56.1105C17.9863 61.0106 19.4008 60.7778 18.5661 55.7868C17.1145 47.1098 23.1496 34.1614 35.1954 20.1087C37.4321 17.4995 37.1917 17.1388 34.5454 19.1324ZM21.0226 21.5732C14.8744 28.5329 9.65162 39.7176 12.1389 40.5987C12.4744 40.7178 12.7484 40.506 12.7484 40.1286C12.7484 38.1804 21.223 23.004 23.4251 21.0089C24.373 20.1502 24.4052 19.2545 23.4885 19.2545C23.2588 19.2545 22.149 20.2977 21.0226 21.5732ZM132.104 40.6114C131.872 43.8069 130.094 49.0322 129.238 49.0322C127.221 49.0322 127.266 46.6329 129.37 41.9831C131.871 36.4577 132.426 36.1794 132.104 40.6114ZM82.9029 42.8081C81.7312 45.0151 79.8978 47.5677 79.4843 47.5677C79.2508 47.5677 79.8827 46.2496 80.8886 44.6387C82.627 41.8543 84.1381 40.4811 82.9029 42.8081ZM78.868 53.3036C77.8318 56.6972 77.1126 60.2979 77.1126 62.0919C77.1126 63.6686 76.1652 66.3442 73.3883 72.6068C71.3403 77.2268 68.4127 84.8508 66.8831 89.5494C62.4137 103.277 60.1819 106.853 60.6666 99.5112C61.4541 87.5782 70.3685 61.344 75.6103 55.5349C78.4057 52.4366 79.3249 51.8073 78.868 53.3036ZM88.0433 62.7397C87.6201 64.1949 85.3985 69.2297 83.1058 73.9283C79.5926 81.1276 73.2391 95.2789 72.061 98.5281C71.8767 99.0362 71.6182 99.3443 71.4866 99.2125C70.6016 98.3265 77.5593 80.7942 83.5549 68.8026C88.5231 58.8656 89.5861 57.4295 88.0433 62.7397ZM121.241 62.7006C120.756 63.2376 120.139 63.6769 119.871 63.6769C119.603 63.6769 119.781 63.2376 120.266 62.7006C120.751 62.1636 121.368 61.7243 121.636 61.7243C121.904 61.7243 121.726 62.1636 121.241 62.7006ZM117.828 66.6059C116.78 67.6798 115.704 68.5585 115.436 68.5585C115.167 68.5585 115.805 67.6798 116.853 66.6059C117.9 65.5319 118.977 64.6532 119.245 64.6532C119.513 64.6532 118.875 65.5319 117.828 66.6059ZM95.6007 69.4128C94.8693 71.3596 91.222 76.8572 90.6622 76.8572C90.2068 76.8572 91.3449 74.6483 94.1199 70.146C95.569 67.7946 96.355 67.4055 95.6007 69.4128ZM34.5147 78.0786C34.9897 79.3171 34.2509 81.3317 33.3845 81.1608C31.9251 80.8733 31.4657 79.4615 32.4707 78.3505C33.5488 77.1574 34.132 77.0803 34.5147 78.0786Z" fill="#FBD300"/>
</svg>
