<svg width="107" height="142" viewBox="0 0 107 142" fill="none" xmlns="http://www.w3.org/2000/svg">
<path fill-rule="evenodd" clip-rule="evenodd" d="M55.388 0.336091C54.4519 0.51709 52.498 2.38741 51.7681 3.80137C51.219 4.86512 51.219 4.86513 49.8714 3.33118C46.3721 -0.651156 43.5218 0.948184 43.5218 6.89388C43.5218 9.67292 43.4663 9.87987 39.447 22.1316C38.7253 24.3319 38.046 26.9862 37.9373 28.0301C37.8034 29.3156 37.2367 30.95 36.1819 33.093C34.624 36.2576 34.624 36.2576 34.3797 41.1824C34.2455 43.891 34.0493 47.1689 33.9436 48.4665C33.8383 49.7642 33.6795 52.7219 33.5907 55.0392C33.4275 59.31 32.9393 62.6375 32.4292 62.9529C32.275 63.0483 31.9652 63.9233 31.7404 64.8971C31.5156 65.8708 30.8699 67.6239 30.3056 68.7925C29.741 69.9614 29.2508 71.3265 29.2158 71.826C29.1448 72.8412 28.313 78.2065 27.3406 83.9243C26.9873 86.0002 26.6067 88.8046 26.495 90.1558C26.2871 92.6635 24.8618 97.1484 23.1777 100.594C22.0451 102.911 19.5606 104.615 13.4071 107.296C10.8516 108.409 9.61569 108.964 6.67758 110.319C5.19708 111.001 3.11531 111.904 2.05103 112.325C0.506268 112.937 -0.487683 113.687 0.246845 113.687C4.37541 113.687 22.5512 105.117 23.8376 102.564C25.8483 98.5728 27.2252 94.2929 27.5243 91.1043C27.7676 88.51 28.6095 83.9041 29.7118 79.1388C30.0546 77.6557 30.4375 75.3139 30.562 73.9346C30.7074 72.3302 31.0799 70.8526 31.5964 69.8309C33.8487 65.3787 35.6947 53.1971 35.9746 40.9394C36.0591 37.2405 36.1055 37.0288 37.4433 34.2356C38.4235 32.1897 38.9689 30.4586 39.3195 28.2805C40.2388 22.5724 41.9669 17.3356 42.5732 18.4209C42.756 18.7479 42.8142 19.2528 42.7028 19.5433C42.3562 20.4483 41.5608 24.7697 41.3189 27.0634C41.192 28.2684 40.8892 29.6432 40.6462 30.1185C40.3764 30.6463 40.2775 31.5301 40.3922 32.3876C40.5402 33.4914 40.4632 33.8372 40.0322 34.0031C39.7307 34.119 39.484 34.3644 39.484 34.5484C39.484 34.7325 38.8875 36.1414 38.158 37.679C36.8713 40.3917 36.8266 40.6081 36.6452 44.9763C36.3612 51.8081 35.8888 56.9739 35.3084 59.5894C34.7418 62.1437 34.5994 65.488 35.0574 65.488C35.2135 65.488 35.6072 64.1609 35.9322 62.5387C36.2572 60.9168 36.7229 58.7552 36.9669 57.7356C37.7105 54.6256 38.1812 50.7046 38.3626 46.1071C38.5069 42.4582 38.6937 41.2744 39.4807 39.0289C40.0002 37.5459 40.6822 35.3466 40.9958 34.1416C41.3094 32.9366 41.688 31.7121 41.8367 31.4205C41.9854 31.1286 42.2058 29.6877 42.3263 28.2185C42.656 24.1893 43.2327 20.9967 43.9299 19.3387C44.3939 18.2348 44.4531 17.7859 44.1594 17.6039C43.6621 17.2961 43.9343 12.696 44.4824 12.1469C45.0389 11.5894 45.2832 12.0289 45.4639 13.9107C45.6086 15.4187 46.2136 16.377 46.2136 15.0979C46.2136 14.8198 46.3499 14.5923 46.5164 14.5923C47.2792 14.5923 46.5712 20.5717 45.3596 24.3669C44.4171 27.3189 44.0346 28.9792 43.186 33.8045C42.8434 35.751 42.4148 38.0262 42.2331 38.8604C42.0514 39.6946 41.6345 42.1973 41.3064 44.4219C40.978 46.6464 40.5847 48.6344 40.4322 48.8397C40.2795 49.0449 40.2499 49.6894 40.3659 50.2722C40.5029 50.9577 40.444 51.3315 40.1991 51.3315C39.9908 51.3315 39.8205 51.644 39.8205 52.0255C39.8205 52.4071 39.9615 52.6322 40.1338 52.5257C40.8454 52.0852 40.872 53.1506 40.1627 53.6866C39.3431 54.3061 39.3434 54.2023 40.1489 58.5419C40.5598 60.754 40.4221 61.7234 39.8801 60.4321C39.5295 59.5965 39.5264 59.5982 39.5052 60.6609C39.4938 61.2501 39.7266 61.9751 40.0231 62.2721C40.4228 62.6725 40.5113 63.1801 40.3649 64.2344C40.2563 65.0164 40.1536 65.884 40.1368 66.1621C40.12 66.4401 39.8828 67.6178 39.6099 68.779C39.337 69.9405 39.2071 71.042 39.3215 71.227C39.4356 71.4121 39.2923 72.0393 39.0025 72.6211C38.6344 73.3599 38.5799 73.8042 38.8215 74.0957C39.0584 74.3816 39.0557 75.0115 38.8131 76.0958C38.4231 77.8401 38.4659 81.6667 38.8757 81.6667C39.1694 81.6667 39.3575 80.8915 39.6516 78.4647C39.764 77.5378 40.3024 74.5514 40.8478 71.8283C41.731 67.4189 41.8394 66.1978 41.8394 60.667C41.8394 53.8244 42.0941 51.8516 43.3175 49.2209C43.7687 48.2498 44.2984 46.3899 44.4942 45.0882C44.9067 42.3452 45.2068 41.4898 47.2398 37.2681C48.2328 35.2067 48.9266 34.1561 49.2991 34.1504C49.6712 34.1446 50.0494 33.573 50.4195 32.4563C51.5107 29.166 51.9515 30.4404 51.8418 36.5687C51.757 41.3138 51.6292 41.6243 49.757 41.6243C48.7785 41.6243 48.5642 41.7328 48.7237 42.1484C48.8388 42.4494 48.5975 43.0329 48.1578 43.5172C47.5521 44.1842 47.5147 44.3167 47.9801 44.1495C48.6103 43.9227 48.7614 44.2506 48.2684 44.7758C47.8203 45.2537 48.2308 47.2868 48.7752 47.2868C49.5245 47.2868 49.3189 48.6735 48.2695 50.6999C47.6524 51.8907 47.3566 52.8901 47.4599 53.4317C47.5494 53.9016 47.4572 54.3886 47.2546 54.514C46.7775 54.8096 46.7836 55.8943 47.2671 56.6699C47.5753 57.1643 47.4734 57.5432 46.7304 58.6679C46.1587 59.5331 45.9158 60.2221 46.0854 60.4968C46.5181 61.1975 46.2146 65.9086 45.6826 66.7519C45.4195 67.1689 44.9434 67.9144 44.6244 68.4082C44.045 69.3065 44.045 69.3065 45.045 69.0577C46.0453 68.8093 46.0454 68.8093 45.2883 69.5212C44.8721 69.9128 44.5312 70.5253 44.5312 70.8822C44.5312 71.2395 44.0568 72.0727 43.477 72.7344C42.3471 74.0236 42.3539 74.5406 43.4928 73.9299C44.4276 73.429 44.3778 73.8871 43.3303 75.4332C42.5675 76.5589 42.5245 76.7676 42.9636 77.2074C43.4027 77.6473 43.5238 77.5846 43.9939 76.6742C44.6072 75.4861 45.2042 75.0051 45.2042 75.6991C45.2042 75.961 44.8256 76.5846 44.363 77.0844C43.9003 77.5846 43.5218 78.1192 43.5218 78.2722C43.5218 78.4252 43.2947 78.7394 43.0171 78.9703C42.7395 79.2011 42.5123 79.523 42.5123 79.6855C42.5123 80.1449 43.7836 80.034 43.9525 79.5601C44.3815 78.3565 44.4356 79.7438 44.014 81.1463C43.7432 82.0476 43.5218 83.1316 43.5218 83.5549C43.5218 83.9786 43.1988 84.5516 42.8037 84.8286C42.1288 85.3022 42.12 85.3666 42.6563 85.9038C43.1446 86.3929 43.2156 87.1297 43.1496 91.02C43.0827 94.9633 43.1469 95.606 43.6335 95.8791C44.2095 96.202 44.3519 97.0433 43.9905 97.9864C43.6638 98.8398 43.2499 98.6025 43.3041 97.5927C43.3313 97.0827 43.2021 96.6243 43.0171 96.5734C42.8172 96.5185 42.5695 98.0939 42.4074 100.45C42.2573 102.632 42.0648 104.76 41.9804 105.176C41.7438 106.342 41.1008 106.079 41.2253 104.868C41.3979 103.183 40.6688 103.396 40.1913 105.17C39.3538 108.282 35.7976 113.361 36.3326 110.681C36.5954 109.364 35.8797 109.257 35.5934 110.569C35.1721 112.499 34.0331 114.959 33.0755 116.009C31.9688 117.223 31.8655 117.577 32.5415 117.837C33.1018 118.052 35.1099 116.284 35.1099 115.576C35.1099 114.738 35.8605 113.35 36.3141 113.35C36.5466 113.35 37.0147 113.249 37.3535 113.124C37.9423 112.909 37.9437 112.929 37.3811 113.572C37.0574 113.943 36.7922 114.4 36.7922 114.589C36.7922 116.132 33.4571 120.091 32.1576 120.091C31.7212 120.091 31.0715 120.248 30.7135 120.44C30.3554 120.632 30.0627 120.658 30.0627 120.497C30.0627 120.337 30.4412 120.002 30.9039 119.754C31.6478 119.355 32.0503 118.743 31.5684 118.743C31.4715 118.743 30.4332 119.35 29.2609 120.091C28.0889 120.833 26.7373 121.439 26.2578 121.439C25.778 121.439 25.2645 121.649 25.1165 121.904C24.6744 122.668 22.5589 123.796 21.5667 123.798C21.0576 123.798 20.6414 123.947 20.6414 124.127C20.6414 124.308 20.1494 124.711 19.5478 125.022C18.9462 125.334 17.8486 126.056 17.1084 126.628C16.3681 127.2 15.6995 127.707 15.6221 127.756C15.5451 127.804 15.5841 127.946 15.7086 128.071C15.9738 128.336 18.6878 127.091 23.0808 124.688C24.3298 124.005 25.352 123.601 25.352 123.791C25.352 123.981 25.2386 124.138 25.0997 124.14C24.9607 124.143 24.4688 124.446 24.0061 124.814C23.5435 125.181 22.105 126.186 20.8096 127.045C19.5142 127.905 18.1514 128.898 17.7813 129.252C17.4112 129.607 16.8059 130.105 16.4361 130.359C16.0659 130.614 15.8671 130.926 15.9936 131.052C16.1201 131.179 16.57 131.04 16.9933 130.743C17.4166 130.446 18.038 130.203 18.3745 130.203C18.711 130.203 20.1097 129.596 21.4825 128.855C24.1316 127.424 24.3426 127.345 24.3426 127.788C24.3426 128.251 20.9664 130.435 18.5629 131.526C16.0367 132.674 15.6534 133.047 16.5098 133.528C17.2416 133.938 17.3092 133.887 14.2483 135.232C10.8125 136.742 3.58773 141.617 4.73612 141.651C4.96392 141.658 6.93229 140.768 9.1103 139.674C12.6214 137.91 15.5868 136.507 18.7907 135.091C19.3459 134.846 21.3143 134.155 23.1649 133.556C26.8271 132.371 29.9904 130.891 33.0072 128.95C34.0711 128.265 36.5577 126.864 38.5328 125.836C46.7577 121.556 50.399 116.562 51.078 108.631C51.4882 103.84 52.0676 103.728 52.4182 108.371C53.0541 116.793 57.4179 122.632 65.9934 126.537C66.8658 126.935 68.3645 127.762 69.3235 128.376C73.4127 130.992 76.2229 132.354 80.829 133.954C83.5204 134.889 88.6584 137.082 92.2466 138.827C95.8348 140.572 98.9304 142 99.1259 142C99.5933 142 98.3735 140.654 97.8947 140.642C97.6921 140.637 96.892 140.068 96.1168 139.378C95.3415 138.688 94.1302 137.828 93.425 137.467C92.7197 137.105 91.9155 136.63 91.6379 136.411C91.3603 136.192 90.7584 135.898 90.3001 135.757C88.7961 135.297 87.2721 134.106 87.2678 133.388C87.2658 133.008 87.0982 132.531 86.8956 132.328C85.6581 131.089 86.8452 130.852 88.3862 132.031C89.8543 133.155 89.9899 133.2 89.7708 132.498C89.6376 132.07 89.3623 131.613 89.1594 131.483C87.4636 130.395 84.5672 127.575 83.7711 126.236C83.5638 125.887 82.9081 124.872 82.3135 123.981C81.7193 123.089 81.1722 122.19 81.0978 121.983C81.0234 121.777 80.8542 121.709 80.7216 121.832C80.4114 122.119 83.1769 127.163 83.6466 127.167C83.7856 127.168 83.899 127.37 83.899 127.615C83.899 127.86 84.3606 129.016 84.9249 130.183C85.4892 131.35 85.8472 132.401 85.72 132.518C85.5931 132.635 85.4209 132.538 85.3371 132.304C85.2533 132.069 84.9616 131.653 84.6887 131.379C84.4158 131.106 84.2765 130.746 84.3794 130.579C84.4821 130.413 84.1651 130.014 83.6752 129.692C82.3714 128.836 80.8707 127.219 80.8707 126.669C80.8707 126.407 80.6361 126.06 80.3495 125.9C80.0628 125.739 79.7802 125.238 79.7213 124.787C79.5551 123.52 79.162 122.788 78.6476 122.788C78.3898 122.788 78.1789 122.641 78.1789 122.461C78.1789 122.282 77.98 122.211 77.7371 122.305C76.9026 122.625 73.4682 116.101 73.4682 114.194C73.4682 113.915 73.3363 113.687 73.1748 113.687C72.7532 113.687 72.381 110.989 72.7394 110.532C73.1172 110.05 73.1169 107.957 72.7391 107.957C72.5849 107.957 72.4588 108.27 72.4588 108.651C72.4588 109.908 71.8158 108.978 71.1162 106.709C70.738 105.483 70.517 104.2 70.6253 103.859C70.9019 102.986 70.1408 103.079 69.8161 103.957C69.6398 104.435 69.8517 105.597 70.4483 107.421C71.6381 111.058 71.9608 112.791 71.4143 112.608C71.1862 112.532 70.7949 111.879 70.5456 111.157C70.2959 110.434 69.9608 109.76 69.8009 109.659C69.4722 109.45 68.421 104.628 68.421 103.33C68.421 102.614 68.4998 102.547 68.9258 102.901C69.2491 103.17 69.4305 103.191 69.4305 102.959C69.4305 102.76 69.2188 102.477 68.9601 102.328C68.491 102.059 68.6697 99.6238 69.2703 98.0983C69.875 96.5626 68.4113 97.6958 67.6152 99.3797C66.5946 101.539 65.8951 101.556 66.2494 99.4118C66.3763 98.6429 66.6404 97.7106 66.8359 97.3399C67.1774 96.6927 68.0482 93.0731 68.0728 92.1997C68.099 91.2671 67.4718 91.8563 67.2656 92.9581C67.1441 93.607 66.919 94.1378 66.7656 94.1378C66.4442 94.1378 65.922 96.0429 66.0031 96.9186C66.0331 97.2428 65.8978 97.5084 65.7027 97.5084C65.4957 97.5084 65.4402 97.8016 65.5697 98.2101C65.7568 98.801 65.6677 98.894 65.0035 98.8C64.4035 98.7147 64.2242 98.4869 64.2538 97.8455C64.3197 96.4025 65.2602 92.6197 65.8443 91.4464C66.4456 90.2394 66.563 89.419 66.135 89.419C65.988 89.419 65.3588 90.9358 64.7363 92.7896C64.1141 94.6434 63.4957 96.1602 63.3621 96.1602C62.8806 96.1602 62.2925 94.1338 62.5159 93.2429C62.7884 92.1546 61.8392 92.7293 61.3345 93.9575C61.0586 94.6296 61.0485 94.6279 60.8281 93.885C60.243 91.9092 59.8661 93.0818 60.3463 95.3853C60.9405 98.2378 61.0044 101.684 60.4529 101.131C60.1578 100.835 59.9142 99.5533 59.7948 97.6698C59.6905 96.0247 59.4691 94.3195 59.3025 93.8807C59.136 93.4418 58.9973 92.5998 58.9946 92.0093C58.9883 90.6739 58.5451 89.9182 57.9755 90.2708C57.6481 90.4737 57.5959 90.2445 57.7514 89.2852C57.9001 88.3661 57.8251 87.9862 57.4674 87.8487C56.7715 87.581 56.8671 87.1682 57.6733 86.9568C58.2786 86.7984 58.3116 86.6892 57.9368 86.0879C57.6138 85.5698 57.5942 85.0754 57.858 84.0861C58.0559 83.3436 58.0882 82.4477 57.9324 82.0257C57.7746 81.5979 57.7998 81.0118 57.992 80.6525C58.4082 79.8736 58.4294 78.6332 58.0266 78.6332C57.5572 78.6332 57.2853 77.078 57.604 76.2128C58.28 74.3765 58.3516 73.5773 57.8405 73.5773C57.4226 73.5773 57.4492 73.3252 58.0024 72.0326C58.8066 70.1528 58.8298 69.7335 58.1144 70.0086C57.563 70.2206 57.607 68.5659 58.1938 67.034C58.3065 66.7398 58.2312 66.4991 58.0263 66.4991C57.8214 66.4991 57.6538 66.6508 57.6538 66.8362C57.6538 67.0216 57.5078 67.1732 57.3294 67.1732C57.1508 67.1732 57.3022 66.4782 57.6659 65.6285C58.4805 63.7241 58.4805 63.7083 57.6538 63.9712C56.7413 64.2614 56.782 63.623 57.8187 61.3924C58.6878 59.5224 58.9095 58.0727 58.3267 58.0727C58.1417 58.0727 57.9903 58.3002 57.9903 58.5783C57.9903 58.8563 57.8584 59.0839 57.6972 59.0839C57.5313 59.0839 57.53 58.4097 57.6942 57.5297C57.8533 56.6749 57.9078 55.8521 57.8146 55.7011C57.7214 55.5501 57.8227 55.0361 58.0401 54.5592C58.3473 53.8834 58.3368 53.395 57.994 52.3538C57.6477 51.3029 57.6407 50.9109 57.9617 50.5236C58.8311 49.474 58.7332 47.8689 57.8106 48.0456C56.856 48.2286 56.8796 48.2714 57.3099 47.1375C57.5629 46.4715 57.4973 46.0165 57.0286 45.1775C56.2292 43.7474 55.8409 41.3405 56.358 41.0203C56.6282 40.8531 56.5599 40.6431 56.1336 40.331C55.5602 39.911 55.5569 39.8426 56.0828 39.2605C56.8328 38.4303 56.7917 38.069 55.9714 38.284C55.1763 38.4923 55.0919 38.1037 55.8032 37.5122C56.0808 37.2813 56.3079 36.9594 56.3079 36.7969C56.3079 36.3406 55.3738 36.4471 55.2042 36.9223C55.1218 37.1542 54.93 37.2274 54.7783 37.0851C54.6262 36.9432 54.6814 36.6473 54.9004 36.4279C55.5219 35.8053 55.3691 35.4221 54.5969 35.6675C53.9182 35.8832 53.9135 35.8626 54.4542 35.0365C55.5118 33.4196 56.2874 34.2336 58.1646 38.9295C59.0932 41.2525 60.026 43.3628 60.2369 43.619C61.5808 45.2497 62.0058 48.0658 61.7951 53.9437C61.5912 59.6248 65.0206 77.5708 66.2339 77.1727C66.8211 76.9799 67.2504 74.2312 66.7424 73.9168C66.424 73.7196 66.3547 73.124 66.4934 71.7774C66.6471 70.2873 66.5936 69.9465 66.2279 70.0871C65.7386 70.2752 65.1512 68.1746 65.524 67.5703C65.6327 67.394 65.485 67.0526 65.1953 66.8116C64.8184 66.4984 64.7279 66.0559 64.8776 65.2567C65.0061 64.5708 64.951 64.1397 64.7349 64.1397C64.5415 64.1397 64.3833 63.6392 64.3833 63.0274C64.3833 62.4157 64.2494 61.7709 64.0862 61.5949C63.7174 61.1979 62.992 57.0706 63.2245 56.6938C63.4025 56.4053 63.815 49.9462 63.7777 48.0311C63.7656 47.4031 62.9224 45.2075 61.8359 42.9752C58.853 36.8455 56.5431 30.0487 56.5673 27.4733C56.573 26.8693 56.4371 26.7469 55.9364 26.906C55.2904 27.1113 55.0279 26.4355 55.5508 25.9117C55.6898 25.7728 55.8237 24.707 55.8489 23.5432C55.8795 22.1299 56.0976 21.117 56.5054 20.4935C57.1104 19.5686 57.1094 19.5618 56.394 19.7894C55.606 20.0398 55.7853 18.494 56.6682 17.4286C56.9701 17.0643 56.9357 16.9132 56.5141 16.7511C56.1649 16.617 55.9808 16.1646 55.998 15.4831C56.0125 14.9003 56.1009 14.6135 56.1942 14.8451C56.5626 15.7595 56.9808 15.1889 56.9808 13.7715C56.9808 11.1951 57.6255 10.0497 58.1319 11.7273C58.7813 13.8787 58.7955 16.4916 58.1592 16.7363C57.6888 16.9169 57.7056 17.0514 58.3012 17.8735C59.0919 18.9652 59.8449 22.4703 60.3291 27.3145C60.5192 29.2138 60.8153 31.0339 60.9873 31.3592C61.1595 31.6845 61.64 33.24 62.0549 34.8157C62.4698 36.3915 62.9092 37.8324 63.031 38.0178C63.6979 39.0323 64.4769 43.2125 64.4045 45.3882C64.3345 47.4951 65.3527 54.5275 66.4119 59.2524C66.952 61.6623 67.4358 63.9813 67.487 64.406C67.5381 64.8303 67.7313 65.1698 67.9163 65.16C68.5496 65.1266 68.1744 59.8941 67.3944 57.8779C66.9156 56.6405 66.4271 51.5024 66.2313 45.6464C66.0866 41.3139 65.7407 39.4519 64.815 38.0269C64.5775 37.6615 64.3833 37.1053 64.3833 36.7912C64.3833 36.4771 64.2699 36.1697 64.131 36.1077C63.9001 36.0049 63.3904 35.0112 62.4308 32.7934C62.2302 32.3299 61.996 31.344 61.9099 30.6025C61.6134 28.0456 60.7453 22.5091 60.4035 20.9964C60.0031 19.2245 59.9597 16.7555 60.3362 17.1708C61.1666 18.0865 63.169 25.3535 63.5462 28.8208C63.6616 29.8798 64.1394 31.4724 64.6084 32.3599C66.7747 36.4572 66.7387 36.3335 66.7387 39.6623C66.7387 41.419 66.8901 43.9668 67.0755 45.3245C67.2609 46.6818 67.6303 50.3709 67.8971 53.5224C68.4389 59.9302 69.8696 66.3882 71.4436 69.5326C72.0398 70.7235 72.4571 72.2301 72.6105 73.7459C72.7417 75.0435 73.3787 78.4562 74.0257 81.3296C74.6731 84.2031 75.4187 88.298 75.6829 90.4299C76.1775 94.4206 76.4844 95.6907 77.517 98.014C77.8464 98.7555 78.4871 100.205 78.941 101.234C79.7139 102.988 81.3007 104.63 83.3778 105.826C84.581 106.519 89.5447 108.968 89.7449 108.968C89.8506 108.968 90.7362 109.334 91.713 109.782C95.5845 111.555 101.743 113.687 102.993 113.687C103.751 113.687 103.435 113.091 102.561 112.871C101.777 112.674 99.9243 111.868 95.5074 109.802C94.5821 109.369 92.0081 108.208 89.7873 107.221C83.1278 104.262 81.1076 102.779 79.8421 99.9163C78.2687 96.3584 77.0954 92.4606 76.8346 89.9246C76.6819 88.4416 76.1549 84.953 75.6634 82.1723C73.9537 72.4998 73.8393 71.7714 73.9931 71.5219C74.0782 71.3841 73.6896 70.3871 73.1297 69.3065C72.5695 68.2259 71.8629 66.4317 71.5594 65.3194C71.2559 64.2071 70.8612 63.107 70.6818 62.8751C70.1287 62.1578 69.4547 58.3609 69.4409 55.8818C69.4335 54.5841 69.203 51.0956 68.9284 48.1295C68.6539 45.1634 68.4271 41.4126 68.4251 39.794C68.4207 36.6335 68.0284 35.2488 66.2989 32.2918C65.6609 31.2008 65.1592 29.6628 64.8699 27.9101C64.6246 26.4247 63.952 23.8445 63.3746 22.1761C59.848 11.9814 59.3035 10.0299 58.958 6.33436C58.5798 2.29136 57.2433 -0.704414 56.1962 0.144634C56.1652 0.169913 55.8015 0.255871 55.388 0.336091ZM57.3567 2.87952C57.3786 3.2968 57.4532 4.50414 57.5226 5.56318C57.6487 7.48845 57.6487 7.48845 56.3032 7.89225C54.716 8.36884 54.1625 8.03886 55.2056 7.23835C55.783 6.79512 55.9939 6.17561 56.1723 4.39628C56.3957 2.1717 57.2621 1.06245 57.3567 2.87952ZM55.2985 3.2004C55.2985 3.87654 53.462 6.16584 52.9196 6.16584C52.5107 6.16584 53.0945 4.25101 53.7799 3.34365C54.5952 2.26406 55.2985 2.19799 55.2985 3.2004ZM46.1846 5.14387C46.402 6.25043 46.7244 7.24509 46.9013 7.35464C47.47 7.70686 47.2637 8.86296 46.6342 8.8515C45.3761 8.82858 44.8677 8.02874 44.8677 6.07212C44.8677 2.6156 45.5884 2.10766 46.1846 5.14387ZM55.2985 5.93427C55.2985 6.48772 53.3607 8.38165 53.0807 8.10155C52.8354 7.8555 54.5754 5.49171 55.002 5.49171C55.1649 5.49171 55.2985 5.69092 55.2985 5.93427ZM47.0548 10.5476C47.1692 10.733 47.1591 11.0525 47.0326 11.2578C46.8065 11.6241 46.2311 11.0626 46.2186 10.4633C46.2112 10.0939 46.8122 10.1546 47.0548 10.5476ZM55.8032 13.244C55.6888 13.4294 55.4438 13.5811 55.2588 13.5811C55.0737 13.5811 55.0158 13.4294 55.1302 13.244C55.2446 13.0587 55.4896 12.907 55.6746 12.907C55.8597 12.907 55.9176 13.0587 55.8032 13.244ZM54.6255 33.2791C54.6255 33.5464 54.4741 33.8585 54.289 33.9731C54.104 34.0877 53.9525 33.8689 53.9525 33.4874C53.9525 33.1058 54.104 32.7934 54.289 32.7934C54.4741 32.7934 54.6255 33.0118 54.6255 33.2791ZM49.4101 35.8269C49.2957 36.0123 49.3627 36.1639 49.5585 36.1639C49.7543 36.1639 49.9148 36.0123 49.9148 35.8269C49.9148 35.6415 49.8482 35.4898 49.7665 35.4898C49.6847 35.4898 49.5245 35.6415 49.4101 35.8269ZM50.5878 36.1639C50.5878 36.3493 50.7392 36.501 50.9243 36.501C51.1093 36.501 51.2607 36.3493 51.2607 36.1639C51.2607 35.9786 51.1093 35.8269 50.9243 35.8269C50.7392 35.8269 50.5878 35.9786 50.5878 36.1639ZM49.3088 37.3608C49.0679 37.6342 48.9673 38.014 49.0854 38.2052C49.2032 38.3966 49.1167 38.7738 48.8933 39.0438C48.3647 39.6818 48.9276 39.6764 49.7665 39.0353C50.293 38.6329 50.3311 38.4778 49.9629 38.2348C49.6446 38.0245 49.6191 37.8637 49.8788 37.7029C50.2991 37.4427 50.3852 36.8313 49.9989 36.8509C49.86 36.8579 49.5494 37.0875 49.3088 37.3608ZM50.9243 39.4132C50.9243 39.7172 50.6591 40.1672 50.3354 40.4136C49.7278 40.8757 50.1335 41.0658 50.7856 40.6249C51.2624 40.302 51.6251 38.8604 51.2291 38.8604C51.0615 38.8604 50.9243 39.1092 50.9243 39.4132ZM42.1759 47.604C42.1759 48.5036 41.618 48.7749 41.4094 47.9768C41.2347 47.3071 41.404 46.9498 41.8956 46.9498C42.0497 46.9498 42.1759 47.244 42.1759 47.604ZM66.9348 68.1393C66.7898 68.3742 66.7622 68.6573 66.8733 68.7685C67.1744 69.0702 67.5028 68.6266 67.3399 68.1379C67.2262 67.7954 67.1468 67.7954 66.9348 68.1393ZM42.8488 70.2067C42.8488 70.3921 42.9911 70.5438 43.1654 70.5438C43.3397 70.5438 43.5756 70.3921 43.69 70.2067C43.8044 70.0214 43.6618 69.8697 43.3734 69.8697C43.085 69.8697 42.8488 70.0214 42.8488 70.2067ZM67.0751 73.2602C67.0751 73.4563 67.2266 73.5234 67.4116 73.4088C67.5967 73.2942 67.7481 73.1338 67.7481 73.0518C67.7481 72.9699 67.5967 72.9032 67.4116 72.9032C67.2266 72.9032 67.0751 73.064 67.0751 73.2602ZM46.075 78.2102C45.7075 78.5783 45.4555 77.9928 45.7193 77.3837C45.9696 76.8064 45.9878 76.8067 46.1271 77.3955C46.2075 77.7346 46.184 78.101 46.075 78.2102ZM45.2405 82.4507C44.7536 83.2397 44.6544 83.6776 44.905 83.9287C45.254 84.2782 44.4562 86.3855 43.975 86.3855C43.5648 86.3855 44.1106 83.0254 44.656 82.1915C45.4965 80.9063 46.0437 81.149 45.2405 82.4507ZM46.6719 83.8576C46.5652 84.1357 46.3475 84.3632 46.188 84.3632C46.0289 84.3632 45.9855 84.1357 46.0918 83.8576C46.1984 83.5795 46.4161 83.352 46.5756 83.352C46.7348 83.352 46.7782 83.5795 46.6719 83.8576ZM72.9423 87.693C73.2179 88.2265 73.6882 88.7574 73.988 88.8727C74.8346 89.1979 75.0352 89.1012 74.4484 88.6499C74.1549 88.424 73.733 87.8979 73.5113 87.481C73.2895 87.064 72.9581 86.7226 72.7747 86.7226C72.5913 86.7226 72.667 87.1591 72.9423 87.693ZM40.9457 91.6547C41.0477 92.7424 41.1388 94.277 41.1486 95.0647C41.1614 96.1056 41.3044 96.4972 41.6711 96.4972C42.5349 96.4972 42.0998 90.1204 41.2162 89.8275C40.8549 89.7079 40.799 90.0847 40.9457 91.6547ZM45.2042 90.4302C45.2042 90.6156 45.1375 90.7673 45.0558 90.7673C44.974 90.7673 44.8138 90.6156 44.6994 90.4302C44.585 90.2448 44.652 90.0931 44.8478 90.0931C45.0436 90.0931 45.2042 90.2448 45.2042 90.4302ZM73.1317 91.4414C73.1317 91.6268 73.2831 91.7784 73.4682 91.7784C73.6533 91.7784 73.8047 91.6268 73.8047 91.4414C73.8047 91.256 73.6533 91.1043 73.4682 91.1043C73.2831 91.1043 73.1317 91.256 73.1317 91.4414ZM83.5625 93.6218C83.5625 94.2501 83.9959 94.7466 85.329 95.6455C86.3007 96.3007 88.0797 97.5246 89.2826 98.3652C95.1743 102.482 99.2181 104.858 99.6306 104.445C99.8809 104.194 97.0996 101.766 94.7285 100.166C93.6763 99.4559 90.8765 97.5057 88.5063 95.8322C83.793 92.5041 83.5625 92.401 83.5625 93.6218ZM39.3387 94.3552C39.6402 96.0247 39.8205 96.2165 39.8205 94.8682C39.8205 94.2811 39.832 93.6909 39.8458 93.5564C39.8596 93.4219 39.6984 93.2544 39.4874 93.184C39.2186 93.0943 39.1742 93.4445 39.3387 94.3552ZM46.5501 96.8343C46.5501 98.1623 45.7311 98.1616 45.6382 96.8336C45.5897 96.1403 45.722 95.8231 46.0588 95.8231C46.3805 95.8231 46.5501 96.1726 46.5501 96.8343ZM62.6747 97.7123C62.8907 98.5721 62.9826 99.3609 62.8786 99.465C62.5081 99.8365 62.103 99.0002 61.8732 97.3881C61.5788 95.3266 62.1313 95.5497 62.6747 97.7123ZM37.1287 97.5084C37.1287 97.6938 37.2801 97.8455 37.4652 97.8455C37.6502 97.8455 37.8017 97.6938 37.8017 97.5084C37.8017 97.323 37.6502 97.1714 37.4652 97.1714C37.2801 97.1714 37.1287 97.323 37.1287 97.5084ZM40.83 97.5084C40.83 97.6938 40.9814 97.8455 41.1664 97.8455C41.3515 97.8455 41.5029 97.6938 41.5029 97.5084C41.5029 97.323 41.3515 97.1714 41.1664 97.1714C40.9814 97.1714 40.83 97.323 40.83 97.5084ZM58.6632 98.5395C58.6632 98.8994 58.5118 99.1937 58.3267 99.1937C58.1417 99.1937 57.9903 98.8054 57.9903 98.3312C57.9903 97.8421 58.136 97.5586 58.3267 97.6769C58.5118 97.7915 58.6632 98.1795 58.6632 98.5395ZM70.4487 99.7273C70.4537 100.686 70.739 101.952 71.1253 102.733C71.8756 104.248 71.874 104.541 71.1408 100.114C70.7767 97.9132 70.4382 97.7245 70.4487 99.7273ZM39.2058 99.7862C38.4504 101.35 38.3922 101.553 38.7024 101.553C39.0473 101.553 40.157 99.7778 40.157 99.226C40.157 98.5543 39.6593 98.8472 39.2058 99.7862ZM75.8235 100.205C75.8235 100.39 75.9749 100.542 76.16 100.542C76.3451 100.542 76.4965 100.39 76.4965 100.205C76.4965 100.019 76.3451 99.8678 76.16 99.8678C75.9749 99.8678 75.8235 100.019 75.8235 100.205ZM44.1947 102.733C44.1947 104.1 44.0706 104.587 43.722 104.587C43.3646 104.587 43.2893 104.237 43.4131 103.154C43.7435 100.269 44.1947 100.025 44.1947 102.733ZM57.6538 101.028C57.6538 101.11 57.5024 101.27 57.3173 101.385C57.1322 101.499 56.9808 101.432 56.9808 101.236C56.9808 101.04 57.1322 100.879 57.3173 100.879C57.5024 100.879 57.6538 100.946 57.6538 101.028ZM63.0374 105.954C63.0374 107.591 63.1855 108.683 63.4277 108.833C63.7178 109.013 63.7619 108.408 63.5987 106.476C63.4372 104.561 63.5071 103.572 63.8641 102.715C64.4587 101.29 64.8749 101.198 64.6047 102.551C64.4742 103.205 64.5755 103.72 64.8991 104.044C65.2087 104.354 65.3934 105.207 65.3941 106.332C65.3975 110.251 67.3473 113.912 68.8918 112.898C69.7225 112.353 70.7407 113.019 70.6916 114.075C70.6377 115.229 70.8036 116.047 71.0917 116.047C71.2653 116.047 71.3212 115.516 71.2158 114.867C70.6273 111.234 72.702 113.77 73.9608 118.223C75.1472 122.42 74.9982 123.599 73.6502 120.677C73.2878 119.891 72.7202 118.977 72.3884 118.646C72.057 118.314 71.7858 117.67 71.7858 117.213C71.7858 116.757 71.6344 116.384 71.4493 116.384C70.952 116.384 71.0341 116.914 71.8043 118.677C73.485 122.525 74.4332 123.575 75.4198 122.68C76.0426 122.116 78.5153 124.062 78.5153 125.117C78.5153 125.671 78.1557 125.56 77.5015 124.805C76.7916 123.985 75.7044 124.24 75.9955 125.159C76.1011 125.492 76.0231 125.866 75.8225 125.99C75.2502 126.345 74.516 125.526 74.2808 124.271C74.1627 123.64 73.9198 123.125 73.7404 123.125C73.4406 123.125 73.5617 124.283 74.0368 125.956C74.1778 126.453 74.0903 126.548 73.6479 126.378C73.3336 126.257 72.9524 126.158 72.8006 126.158C72.6489 126.158 72.3662 125.703 72.1728 125.147C71.8057 124.092 71.2935 123.836 70.9937 124.557C70.8612 124.876 70.7118 124.855 70.377 124.469C70.134 124.189 69.5502 123.789 69.0802 123.581C68.5358 123.341 67.8144 122.393 67.0947 120.972C65.7858 118.389 65.1697 117.718 64.8567 118.535C64.4641 119.559 64.0469 118.7 64.0071 116.785C63.9765 115.315 63.916 115.103 63.7474 115.878C63.5125 116.96 63.2662 116.783 62.9059 115.274C62.6989 114.408 62.638 114.376 62.1373 114.878C61.3234 115.693 61.0297 114.958 61.0236 112.086C61.0189 109.866 61.0798 109.642 61.6915 109.642C62.0616 109.642 62.3645 109.491 62.3645 109.305C62.3645 109.12 62.1373 108.968 61.8597 108.968C61.4785 108.968 61.355 108.556 61.355 107.283C61.355 106.356 61.2036 105.598 61.0186 105.598C60.8335 105.598 60.6821 106.271 60.6821 107.095C60.6821 107.918 60.5471 108.675 60.3826 108.777C60.2177 108.879 59.8231 110.025 59.5051 111.325C58.357 116.018 57.9849 113.529 59.0145 108.042C59.5431 105.226 59.2345 104.404 57.9502 105.207C57.2318 105.657 57.213 105.169 57.858 102.854C58.0549 102.148 59.6 101.844 60.4385 102.347C60.9768 102.669 61.1696 102.604 61.6104 101.953C62.4011 100.785 63.0374 102.569 63.0374 105.954ZM75.5432 102.211C75.6048 102.387 76.6775 103.817 77.9265 105.389C79.1755 106.961 80.1977 108.418 80.1977 108.627C80.1977 109.101 82.2291 111.665 82.6052 111.665C83.0955 111.665 80.9696 108.094 79.5857 106.592C78.8468 105.791 77.8118 104.408 77.2852 103.519C76.4793 102.158 75.1849 101.186 75.5432 102.211ZM72.4588 102.743C72.4588 103.28 73.3528 103.804 73.6909 103.465C73.8858 103.269 73.0099 102.227 72.6509 102.227C72.5452 102.227 72.4588 102.459 72.4588 102.743ZM66.9991 103.828C66.8938 104.72 67.0378 105.348 67.4887 105.963C68.2387 106.984 68.7848 112.002 68.1461 112.002C67.9416 112.002 67.6021 111.357 67.3918 110.569C67.1815 109.782 66.8907 108.985 66.7457 108.8C66.3497 108.294 66.1229 104.191 66.4429 103.323C66.8722 102.156 67.1656 102.422 66.9991 103.828ZM78.8525 103.828C78.8532 103.967 79.3071 104.612 79.8613 105.261C80.4154 105.91 80.8693 106.554 80.87 106.693C80.8704 106.832 81.0221 106.946 81.2072 106.946C81.7694 106.946 81.5901 106.497 80.5342 105.261C79.98 104.612 79.5261 103.967 79.5255 103.828C79.5251 103.689 79.3734 103.575 79.1883 103.575C79.0032 103.575 78.8522 103.689 78.8525 103.828ZM36.734 104.924C36.4245 105.573 36.0675 106.52 35.9406 107.03C35.8138 107.54 35.5362 107.957 35.3238 107.957C35.1115 107.957 34.7367 108.412 34.4907 108.968C33.9507 110.191 33.3074 110.34 33.764 109.137C33.9399 108.673 33.9702 108.294 33.8316 108.294C33.3366 108.294 30.6963 114.466 31.0876 114.708C31.5149 114.972 25.7804 118.777 22.0727 120.688C20.7319 121.38 19.6343 122.064 19.6333 122.208C19.6296 122.928 20.7356 122.695 22.6871 121.567C23.8752 120.88 25.3392 120.083 25.9409 119.797C26.5425 119.511 27.0344 119.157 27.0344 119.01C27.0344 118.863 27.2615 118.743 27.5391 118.743C27.8167 118.743 28.0438 118.516 28.0438 118.237C28.0438 117.959 28.1572 117.732 28.2962 117.732C28.4352 117.731 28.9883 117.352 29.5264 116.889C30.064 116.425 30.6085 116.047 30.7367 116.047C31.2474 116.047 32.4658 114.711 32.2596 114.377C31.9012 113.796 32.7882 111.811 33.5573 111.472C33.9487 111.3 34.4958 110.669 34.7734 110.071C35.1132 109.338 35.5173 108.98 36.0109 108.976C36.8114 108.968 37.6594 106.318 37.4157 104.587C37.3017 103.777 37.2751 103.79 36.734 104.924ZM34.1004 104.924C34.1004 105.109 34.2518 105.261 34.4369 105.261C34.622 105.261 34.7734 105.109 34.7734 104.924C34.7734 104.738 34.622 104.587 34.4369 104.587C34.2518 104.587 34.1004 104.738 34.1004 104.924ZM34.4369 106.946C34.4369 107.131 34.5974 107.283 34.7932 107.283C34.9891 107.283 35.056 107.131 34.9416 106.946C34.8272 106.761 34.667 106.609 34.5853 106.609C34.5035 106.609 34.4369 106.761 34.4369 106.946ZM42.0106 108.959C41.5352 110.393 41.333 110.645 40.795 110.474C40.2835 110.311 40.1096 110.47 39.9555 111.241C39.8488 111.776 39.4719 112.395 39.118 112.616C38.3515 113.096 38.3266 112.947 38.94 111.547C39.1957 110.963 39.6001 109.974 39.8383 109.35C40.7936 106.847 42.8327 106.48 42.0106 108.959ZM44.7371 110.288C44.2617 112.124 43.1853 113.733 43.1853 112.608C43.1853 112.306 43.008 111.999 42.7913 111.926C42.3666 111.785 43.4353 109.642 43.9309 109.642C44.0759 109.642 44.1947 109.427 44.1947 109.165C44.1947 108.762 44.8576 108.248 45.1163 108.449C45.1608 108.484 44.9902 109.311 44.7371 110.288ZM78.2031 108.631C78.2018 108.909 78.4225 109.431 78.6943 109.791C78.9659 110.151 79.1883 110.947 79.1883 111.561C79.1883 112.223 79.3592 112.68 79.6089 112.686C79.8404 112.692 80.5594 113.412 81.2072 114.287C82.4663 115.988 82.6442 116.184 83.8744 117.226C85.298 118.432 83.5968 115.893 81.4851 113.66C80.7021 112.832 80.1977 111.823 80.1977 111.084C80.1977 110.741 79.7495 109.934 79.2021 109.293C78.6065 108.595 78.2051 108.329 78.2031 108.631ZM30.6199 109.375C30.4382 110.072 30.5788 110.603 30.8622 110.289C31.2047 109.908 31.4143 108.631 31.1341 108.631C30.9581 108.631 30.7269 108.966 30.6199 109.375ZM76.5039 109.563C76.4998 109.797 76.6388 110.252 76.8128 110.574C76.9864 110.896 77.2165 111.576 77.3239 112.086C77.4309 112.596 77.6836 113.013 77.8848 113.013C78.086 113.013 78.159 112.773 78.0466 112.48C77.9343 112.187 77.839 111.694 77.835 111.384C77.8262 110.726 76.515 108.932 76.5039 109.563ZM62.5963 110.778C62.4509 111.309 62.4149 111.828 62.5162 111.929C62.8671 112.281 63.0875 111.723 62.9745 110.769C62.8611 109.811 62.8611 109.811 62.5963 110.778ZM26.596 110.786C26.4584 111.137 26.4251 111.504 26.5216 111.601C26.8288 111.908 27.0987 111.404 26.9702 110.764C26.8524 110.178 26.8342 110.179 26.596 110.786ZM63.8937 111.412C64.2403 112.561 64.6266 112.836 65.2104 112.351C65.8534 111.816 65.8904 111.287 65.2679 111.526C65.0142 111.624 64.7161 111.467 64.6054 111.178C64.2827 110.336 63.6336 110.549 63.8937 111.412ZM73.8047 110.991C73.8047 111.176 73.9561 111.328 74.1411 111.328C74.3262 111.328 74.4776 111.176 74.4776 110.991C74.4776 110.805 74.3262 110.654 74.1411 110.654C73.9561 110.654 73.8047 110.805 73.8047 110.991ZM83.226 112.286C83.226 112.647 85.9589 115.372 86.3206 115.372C86.8697 115.372 86.5524 114.912 85.0117 113.475C83.3367 111.913 83.226 111.839 83.226 112.286ZM93.6568 112.311C93.6568 112.741 95.929 114.108 96.389 113.954C96.5952 113.886 96.144 113.418 95.3859 112.916C93.8883 111.923 93.6568 111.842 93.6568 112.311ZM29.2047 112.991C29.0291 113.164 26.5539 114.462 23.705 115.875C20.1555 117.635 18.6339 118.552 18.8712 118.79C19.2692 119.189 22.0976 117.963 24.9378 116.161C25.9133 115.542 26.9351 115.035 27.209 115.035C27.4833 115.035 27.7074 114.906 27.7074 114.747C27.7074 114.588 28.1983 114.318 28.7986 114.145C29.3988 113.973 29.9399 113.572 30.0008 113.254C30.1219 112.625 29.7131 112.49 29.2047 112.991ZM42.3777 113.216C41.799 114.726 38.1368 117.506 37.5284 116.896C37.2381 116.606 38.5453 115.372 39.1435 115.372C39.4538 115.372 40.1947 114.766 40.7896 114.024C41.8798 112.665 42.7603 112.217 42.3777 113.216ZM21.0387 113.892C20.2396 114.372 19.644 114.823 19.716 114.895C19.9092 115.089 22.9792 113.56 22.9886 113.266C23.0021 112.839 22.5515 112.984 21.0387 113.892ZM68.7575 114.024C68.7575 114.21 68.918 114.361 69.1139 114.361C69.3097 114.361 69.3766 114.21 69.2622 114.024C69.1478 113.839 68.9877 113.687 68.9059 113.687C68.8241 113.687 68.7575 113.839 68.7575 114.024ZM97.358 114.698C97.358 114.884 97.5095 115.035 97.6945 115.035C97.8796 115.035 98.031 114.884 98.031 114.698C98.031 114.513 97.8796 114.361 97.6945 114.361C97.5095 114.361 97.358 114.513 97.358 114.698ZM66.7387 115.372C66.7387 115.558 66.8901 115.71 67.0751 115.71C67.2602 115.71 67.4116 115.558 67.4116 115.372C67.4116 115.187 67.2602 115.035 67.0751 115.035C66.8901 115.035 66.7387 115.187 66.7387 115.372ZM78.3111 115.906C78.4235 116.199 78.5153 116.555 78.5153 116.697C78.5153 117.11 79.8474 118.532 80.0473 118.332C80.3091 118.07 78.8491 115.372 78.4454 115.372C78.2593 115.372 78.1987 115.612 78.3111 115.906ZM98.704 115.858C98.704 116.147 98.8554 116.384 99.0404 116.384C99.2255 116.384 99.3769 116.241 99.3769 116.066C99.3769 115.892 99.2255 115.656 99.0404 115.541C98.8554 115.426 98.704 115.569 98.704 115.858ZM43.5191 116.389C42.9067 117.535 39.8205 119.267 39.8205 118.465C39.8205 117.955 41.4477 116.647 41.8054 116.868C41.9992 116.988 42.4228 116.777 42.7465 116.398C43.5026 115.513 43.9898 115.507 43.5191 116.389ZM88.7779 116.047C88.6635 116.232 88.8061 116.384 89.0945 116.384C89.3829 116.384 89.6191 116.232 89.6191 116.047C89.6191 115.861 89.4768 115.71 89.3025 115.71C89.1282 115.71 88.8923 115.861 88.7779 116.047ZM75.8343 116.741C75.8282 117.029 76.046 117.56 76.3175 117.92C76.7125 118.443 76.8138 118.469 76.8222 118.049C76.8283 117.76 76.6105 117.229 76.339 116.869C75.944 116.346 75.8427 116.321 75.8343 116.741ZM87.2637 117.727C87.2637 118.261 87.1177 118.419 86.759 118.273C86.4814 118.161 86.0272 117.977 85.7496 117.864C85.472 117.752 85.2449 117.809 85.2449 117.992C85.2449 118.463 87.1504 119.196 87.7624 118.96C88.4152 118.71 88.4182 117.935 87.7684 117.395C87.3455 117.043 87.2637 117.097 87.2637 117.727ZM97.1932 117.389C96.9156 117.839 99.2803 118.952 100.975 119.17C102.224 119.33 102.405 119.271 102.405 118.707C102.405 118.155 102.218 118.084 101.119 118.223C100.236 118.334 99.4486 118.179 98.6104 117.729C97.9173 117.357 97.3039 117.21 97.1932 117.389ZM79.693 120.091C79.9632 121.324 79.6698 121.378 78.7916 120.26C78.1351 119.424 77.5059 119.152 77.5059 119.705C77.5059 120.819 79.9464 122.244 80.2953 121.334C80.5382 120.7 80.1789 119.08 79.7953 119.08C79.6103 119.08 79.5665 119.514 79.693 120.091ZM36.1193 120.914C36.1193 120.996 35.9679 121.156 35.7828 121.271C35.5977 121.386 35.4463 121.318 35.4463 121.122C35.4463 120.926 35.5977 120.765 35.7828 120.765C35.9679 120.765 36.1193 120.832 36.1193 120.914ZM101.89 121.119C101.57 121.638 102.008 121.972 102.44 121.539C102.682 121.297 102.687 121.109 102.458 120.967C102.269 120.85 102.014 120.919 101.89 121.119ZM100.723 121.439C100.723 121.625 100.874 121.777 101.059 121.777C101.244 121.777 101.396 121.625 101.396 121.439C101.396 121.254 101.244 121.102 101.059 121.102C100.874 121.102 100.723 121.254 100.723 121.439ZM31.4086 121.754C31.4086 121.926 30.9544 122.392 30.3992 122.788C29.2242 123.626 29.0122 123.043 30.1468 122.095C30.9867 121.393 31.4086 121.279 31.4086 121.754ZM28.3803 122.369C28.3803 122.51 28.0775 122.815 27.7074 123.047C26.9705 123.507 26.7949 123.163 27.4382 122.518C27.8938 122.062 28.3803 121.985 28.3803 122.369ZM31.7451 122.788C31.7451 122.973 31.5846 123.125 31.3887 123.125C31.1929 123.125 31.126 122.973 31.2404 122.788C31.3548 122.602 31.5149 122.451 31.5967 122.451C31.6785 122.451 31.7451 122.602 31.7451 122.788ZM28.5624 124.113C28.4406 124.311 28.1794 124.473 27.9829 124.473C27.7595 124.473 27.7851 124.28 28.0506 123.959C28.5122 123.402 28.9244 123.527 28.5624 124.113ZM93.3203 125.135C93.3203 125.465 94.6433 126.495 95.067 126.495C95.2049 126.495 95.2389 126.288 95.142 126.035C94.931 125.485 93.3203 124.689 93.3203 125.135ZM12.3129 125.881C11.7113 126.253 11.3055 126.698 11.4111 126.87C11.5171 127.041 11.9919 126.875 12.4667 126.501C12.9411 126.127 13.5363 125.821 13.789 125.821C14.0417 125.821 14.2483 125.67 14.2483 125.484C14.2483 124.978 13.535 125.124 12.3129 125.881ZM25.6885 125.43C25.6885 125.706 24.208 126.506 23.738 126.484C23.3984 126.468 25.03 125.147 25.3894 125.147C25.5539 125.147 25.6885 125.275 25.6885 125.43ZM29.2353 126.81C29.1135 127.008 28.7844 127.169 28.5048 127.169C28.2249 127.169 27.7686 127.397 27.491 127.675C27.2134 127.953 26.8133 128.181 26.6017 128.181C26.0596 128.181 26.9829 127.321 28.1966 126.696C29.2363 126.16 29.6108 126.201 29.2353 126.81ZM105.484 129.175C105.558 129.397 105.728 129.568 105.862 129.554C106.265 129.512 106.187 129.05 105.753 128.905C105.531 128.831 105.41 128.952 105.484 129.175ZM10.9677 129.603C10.5514 129.804 10.2106 130.11 10.2106 130.283C10.2106 130.455 10.4 130.508 10.6312 130.4C10.8627 130.292 11.3169 130.11 11.6406 129.995C11.9643 129.881 12.2294 129.653 12.2294 129.489C12.2294 129.114 11.9232 129.142 10.9677 129.603ZM89.9556 129.866C89.9556 130.051 90.1282 130.203 90.3391 130.203C90.5501 130.203 90.9162 130.468 91.1527 130.792C91.3893 131.116 91.7066 131.258 91.8577 131.106C92.0091 130.955 91.7564 130.541 91.2964 130.187C90.3576 129.465 89.9556 129.368 89.9556 129.866ZM86.4225 130.203C86.5369 130.388 86.4791 130.54 86.294 130.54C86.1089 130.54 85.864 130.388 85.7496 130.203C85.6352 130.018 85.6931 129.866 85.8781 129.866C86.0632 129.866 86.3082 130.018 86.4225 130.203ZM96.0121 130.203C96.0121 130.388 96.1635 130.54 96.3486 130.54C96.5337 130.54 96.6851 130.388 96.6851 130.203C96.6851 130.018 96.5337 129.866 96.3486 129.866C96.1635 129.866 96.0121 130.018 96.0121 130.203ZM14.2483 131.551C14.2483 131.737 14.3906 131.888 14.5649 131.888C14.7392 131.888 14.9751 131.737 15.0895 131.551C15.2039 131.366 15.0612 131.214 14.7729 131.214C14.4845 131.214 14.2483 131.366 14.2483 131.551ZM99.0404 131.852C99.0404 132.176 101.479 133.246 102.16 133.221C102.569 133.206 99.7793 131.596 99.2928 131.566C99.1538 131.558 99.0404 131.686 99.0404 131.852ZM11.3926 132.621C9.4266 133.398 9.31253 133.485 9.72842 133.894C10.0965 134.256 13.5753 132.75 13.5753 132.229C13.5753 131.793 13.4138 131.822 11.3926 132.621ZM106.264 133.59C105.945 134.109 106.382 134.443 106.814 134.01C107.056 133.768 107.062 133.58 106.832 133.438C106.643 133.321 106.388 133.39 106.264 133.59ZM10.6312 134.702C9.63689 135.029 9.12444 135.596 9.82398 135.596C10.4734 135.596 12.2294 134.834 12.2294 134.552C12.2294 134.202 12.1191 134.213 10.6312 134.702ZM99.3769 135.534C99.3769 135.772 101.483 136.944 101.912 136.944C102.533 136.944 101.849 136.187 100.85 135.769C99.4364 135.177 99.3769 135.168 99.3769 135.534ZM104.964 136.804C104.839 137.132 104.914 137.286 105.16 137.204C105.663 137.036 105.94 136.27 105.497 136.27C105.317 136.27 105.077 136.51 104.964 136.804ZM100.05 138.629C100.05 138.815 100.277 138.966 100.555 138.966C100.832 138.966 101.059 138.815 101.059 138.629C101.059 138.444 100.832 138.292 100.555 138.292C100.277 138.292 100.05 138.444 100.05 138.629Z" fill="#FBD300"/>
</svg>
