<svg width="184" height="120" viewBox="0 0 184 120" fill="none" xmlns="http://www.w3.org/2000/svg">
<path fill-rule="evenodd" clip-rule="evenodd" d="M0.726844 5.83643C-0.61356 4.77952 -0.0488438 2.55707 1.9991 0.829093C3.35001 -0.310658 4.58385 -0.269245 4.58385 0.915922C4.58385 1.5601 4.31418 1.93614 3.67769 2.17848C3.17929 2.3685 2.77152 2.66389 2.77152 2.83538C2.77152 3.4385 4.23226 3.03011 4.98982 2.21553C6.18161 0.932996 6.62056 1.72469 6.04678 4.1219C5.45197 6.60741 5.75064 8.66056 7.13345 11.5915C7.72463 12.8446 8.21361 14.1417 8.22013 14.4734C8.24115 15.5797 9.1716 16.4368 10.0484 16.1578C10.7987 15.9191 10.84 15.9888 10.6483 17.1722C10.47 18.2752 10.6062 18.6022 11.6817 19.6468C13.2316 21.1528 13.5252 23.4926 12.1079 23.0417C11.1166 22.7263 11.4113 23.154 14.0986 25.9309C15.1668 27.0343 15.8203 28.036 15.8203 28.569C15.8203 29.3785 15.9483 29.4279 18.0354 29.4279C20.2508 29.4279 20.2508 29.4279 20.0028 30.7526C19.8336 31.6569 19.8995 32.167 20.2109 32.3599C20.5756 32.5859 20.5719 32.7574 20.1928 33.2152C19.8756 33.5985 19.8531 33.7878 20.1257 33.7878C20.3494 33.7878 20.5324 33.6243 20.5324 33.4244C20.5324 33.2246 20.6937 33.0611 20.8909 33.0611C21.0881 33.0611 22.2237 32.3181 23.4148 31.4105C24.4758 30.6015 25.0611 30.1696 25.2169 29.6169C25.4095 28.9335 24.9455 28.0656 23.9124 26.0722C22.7891 23.9046 24.4877 20.6143 27.8495 18.4442C30.8729 16.4931 31.7258 15.9848 31.9777 15.9848C32.3507 15.9848 31.7667 18.6295 31.1984 19.5145C30.9142 19.9571 30.6804 20.5293 30.6793 20.7862C30.6713 22.6301 29.8768 23.9518 28.3226 24.7061C27.1076 25.2954 26.7183 25.6853 26.752 26.2782C26.7766 26.7116 26.6744 27.5161 26.5251 28.0654C26.3475 28.7183 26.3924 29.0645 26.6552 29.0645C26.876 29.0645 27.0568 29.3098 27.0568 29.6095C27.0568 29.9093 26.8937 30.1545 26.6944 30.1545C25.9919 30.1545 26.3428 31.2347 27.2352 31.8211C28.875 32.898 29.5234 32.1201 30.5434 27.8514C30.8225 26.6848 31.0168 25.2867 30.9758 24.745C30.9051 23.817 31.9915 21.8344 32.5845 21.8093C33.0698 21.789 32.8715 26.0235 32.3126 27.6112C31.5376 29.8126 31.6011 29.9082 33.2249 28.9846C34.9003 28.0316 35.5596 28.4411 35.2337 30.2323C35.0688 31.1399 35.1188 31.1889 35.8612 30.8499C36.9214 30.3656 38.9838 31.2118 40.1607 32.6139C40.6374 33.1818 41.3304 33.7627 41.7005 33.9051C42.2598 34.1202 42.3424 34.4396 42.1898 35.7966C41.9887 37.5852 42.5512 39.6646 43.4911 40.6067C44.0518 41.1687 44.0931 41.1364 44.0978 40.1329C44.1044 38.7006 44.4639 37.421 44.8601 37.421C45.0359 37.421 45.1802 37.6852 45.1802 38.0078C45.1802 38.3304 46.0168 40.3334 47.0396 42.4585C48.0622 44.5836 49.5425 47.794 50.329 49.5924C51.1156 51.3909 51.9101 53.0178 52.0942 53.2075C52.2787 53.3972 52.4295 53.7859 52.4295 54.0715C52.4295 54.3567 53.2244 55.6727 54.1962 56.9963C56.8404 60.5972 57.2891 61.6199 56.7726 62.869C56.3598 63.8689 56.5131 64.6704 57.1177 64.6704C57.2804 64.6704 57.5052 64.2108 57.6172 63.6487C58.2946 60.2549 60.9475 60.4224 60.9475 63.8591C60.9475 64.9869 61.1646 65.9417 61.5155 66.3581C61.8276 66.7287 62.5391 68.1358 63.0966 69.4845C63.9603 71.575 64.242 71.9369 65.0042 71.9369C65.7995 71.9369 65.8731 72.0517 65.6708 72.976C65.5131 73.6958 65.6737 74.4075 66.1942 75.2915C66.7999 76.3204 66.8735 76.7571 66.5744 77.5459C66.0971 78.8041 66.1018 78.8401 66.7441 78.8401C67.0413 78.8401 67.4882 78.5131 67.7372 78.1134C68.2748 77.2505 68.9493 77.1761 69.372 77.9332C69.7841 78.6712 71.7041 77.8391 71.4717 77.0235C71.3862 76.7237 71.2079 75.8637 71.0748 75.112C70.9418 74.3603 70.6957 73.6602 70.5275 73.5562C69.8461 73.1341 72.2768 69.2229 73.4534 68.8483C74.2823 68.5849 74.4422 67.577 73.6553 67.577C72.2246 67.577 74.5984 62.2623 76.1661 61.9549C78.0902 61.5776 79.0807 61.3754 79.3342 61.7175C79.6053 62.0835 79.0334 63.0722 77.8591 65.1355C76.9258 66.7755 76.862 68.0359 77.671 68.8468C78.5565 69.7344 77.0284 74.3835 75.5368 75.3387C75.1881 75.5622 74.9025 75.8801 74.9025 76.0454C74.9025 76.2107 75.1881 76.2561 75.5368 76.1464C76.2567 75.92 77.1697 77.4489 76.8359 78.3216C76.5024 79.1922 77.385 78.8982 78.0197 77.9274C78.3528 77.4173 80.0767 76.279 81.9246 75.3482C87.5522 72.5135 87.6889 72.4034 87.4141 70.9356C86.8048 67.6802 86.8951 64.7739 87.6294 63.9837C88.8223 62.7005 90.121 63.236 90.1316 65.0156C90.1392 66.2785 90.6162 66.9339 91.4353 66.8071C91.8283 66.7464 92.6699 67.2362 93.4104 67.9567C98.2523 72.6654 98.4835 72.7671 99.6873 70.7078C100.767 68.8614 101.148 68.6568 104.081 68.3494C105.365 68.2149 105.891 68.1598 106.085 67.8774C106.22 67.6814 106.195 67.3761 106.153 66.8591C106.096 66.1644 106.222 64.7896 106.433 63.8035C106.781 62.1791 106.744 61.9335 106.045 61.1872C104.549 59.5915 106.491 57.2502 110.226 56.145C112.39 55.5048 112.581 55.6312 111.703 57.122C111.233 57.9191 111.155 58.3144 111.45 58.4125C111.683 58.4906 111.874 58.8677 111.874 59.2507C111.874 59.634 112.123 59.9472 112.427 59.9472C113.197 59.9472 113.767 61.6624 113.508 63.2008C113.293 64.4771 113.31 64.4967 115.339 65.3742C116.464 65.861 117.468 66.4743 117.569 66.7366C117.669 66.999 118.144 67.2137 118.625 67.2137C119.391 67.2137 119.47 67.3336 119.257 68.1816C119.071 68.9242 119.133 69.1052 119.522 68.9584C121.209 68.3215 121.617 68.3117 122.199 68.8951C122.561 69.2581 122.912 69.3668 123.053 69.1597C123.931 67.8666 124.603 67.2584 126.306 66.2145C127.366 65.5649 128.386 65.0337 128.572 65.0337C128.758 65.0337 128.91 64.8503 128.91 64.6257C128.91 64.0669 132.13 59.5839 132.532 59.5839C132.709 59.5839 132.955 59.7474 133.078 59.9472C133.451 60.5507 134.284 60.3559 134.52 59.6104C134.642 59.2253 135.346 58.5549 136.085 58.1211C139.131 56.3321 142.688 53.5261 143.071 52.6106C143.806 50.8502 149.434 46.5034 150.97 46.5092C152.831 46.5161 153.92 46.8678 153.92 47.4619C153.92 47.8336 154.19 47.9066 154.917 47.7315C155.558 47.5774 155.874 47.5215 155.954 47.3535C156.036 47.1805 155.869 46.8886 155.55 46.248C154.897 44.9349 154.749 39.674 155.335 38.5764C155.553 38.1698 155.644 37.6118 155.538 37.3367C155.037 36.0277 157.406 33.9135 160.354 33.0386C161.201 32.7872 161.895 32.4794 161.895 32.3548C161.895 32.091 164.079 30.7486 164.202 30.9368C164.747 31.767 165.031 33.0386 164.766 33.4579C164.588 33.7391 164.438 34.9504 164.432 36.1494C164.426 37.3484 164.22 38.6745 163.973 39.0963C163.727 39.5181 163.08 40.6935 162.534 41.7079C161.989 42.7223 161.002 43.966 160.341 44.4714C158.332 46.0075 158.721 48.9254 160.763 47.629C161.039 47.4539 161.141 47.1156 160.992 46.8733C160.621 46.2713 161.522 44.6875 162.236 44.6875C162.556 44.6875 163.104 44.1563 163.455 43.5067C163.806 42.8571 165.021 41.5084 166.155 40.5093C167.29 39.5101 168.845 38.0954 169.61 37.3651C170.375 36.6348 171.439 35.854 171.975 35.6295C172.903 35.2411 174.581 33.1225 174.581 32.3396C174.581 32.1368 174.714 31.9711 174.876 31.9711C175.039 31.9711 175.46 31.364 175.813 30.6221C176.722 28.7125 179.305 25.7212 179.86 25.9352C180.912 26.3396 181.264 25.1112 180.616 23.3033C179.948 21.4442 180.506 19.2548 181.646 19.2548C181.914 19.2548 182.391 19.1556 182.707 19.0342C183.609 18.6873 183.51 23.3756 182.58 25.068C181.308 27.382 181.017 28.1435 180.923 29.4133C180.872 30.1047 180.639 30.734 180.406 30.8121C180.172 30.8903 179.555 31.6325 179.035 32.4616C178.147 33.8768 175.415 37.3807 174.884 37.7862C174.378 38.1727 169.869 44.4063 169.869 44.7191C169.869 44.9004 169.285 45.6972 168.571 46.4893C167.856 47.2817 167.378 48.1028 167.509 48.3139C167.639 48.525 167.075 49.5415 166.255 50.573C165.059 52.0794 164.809 52.6443 164.983 53.4426C165.122 54.0769 165.028 54.546 164.722 54.7393C164.144 55.1055 162.62 58.7613 162.62 59.7826C162.62 60.1837 162.38 60.8548 162.087 61.2737C161.235 62.493 160.907 65.2125 161.646 64.9284C162.54 64.5843 162.774 65.3498 162.028 66.1764C161.386 66.8874 161.387 66.9219 162.053 67.2951C162.705 67.6613 162.708 67.7038 162.099 68.1496C161.344 68.7037 161.644 69.3936 162.641 69.3936C163.381 69.3936 163.615 69.9691 162.964 70.1868C162.39 70.3786 162.962 73.3902 163.572 73.3902C164.113 73.3902 164.273 75.0379 163.763 75.354C163.594 75.4583 163.502 77.3893 163.559 79.6445C163.627 82.3567 163.485 84.4175 163.14 85.7317C162.456 88.3407 162.464 89.7398 163.163 89.7398C163.977 89.7398 163.82 90.3088 162.825 90.9621C161.944 91.5409 161.944 91.5409 162.83 93.2111C163.317 94.1299 163.618 95.0397 163.499 95.2333C163.38 95.4266 163.466 95.8074 163.691 96.0792C163.916 96.3509 164 96.9758 163.877 97.4674C163.72 98.0949 163.823 98.4266 164.224 98.5806C164.962 98.8648 164.96 100.413 164.22 101.028C163.769 101.404 163.703 101.861 163.911 103.162C164.056 104.073 164.15 105.145 164.118 105.544C164.085 105.944 164.249 106.879 164.481 107.622C164.798 108.639 164.8 109.097 164.487 109.475C163.862 110.23 163.504 113.356 164.042 113.356C164.351 113.356 164.406 113.827 164.232 114.991C164.105 115.836 164.044 116.244 164.22 116.441C164.385 116.626 164.757 116.626 165.478 116.626C166.656 116.626 166.97 116.759 166.97 117.262C166.972 118.388 167.554 119.286 168.799 120L162.349 119.227C162.738 118.742 162.701 118.707 162.151 118.914C161.58 119.129 161.53 119.006 161.738 117.892C161.919 116.925 161.853 116.626 161.457 116.626C160.952 116.626 158.995 111.059 158.995 109.624C158.995 109.275 158.58 107.234 158.073 105.087C157.566 102.941 157.085 100.776 157.004 100.276C156.811 99.0828 155.687 96.061 154.842 94.4631C153.902 92.6853 153.205 89.8699 153.2 87.8324C153.197 86.8154 153.031 86.1066 152.794 86.1066C152.573 86.1066 152.487 85.8614 152.602 85.5616C152.716 85.2619 152.677 85.0166 152.515 85.0166C151.854 85.0166 151.095 86.3896 150.863 88.0057C150.727 88.95 150.467 89.8154 150.285 89.9281C149.726 90.2743 148.483 93.4062 148.483 94.4678C148.483 95.019 148.24 95.9382 147.942 96.5108C147.644 97.083 147.4 97.8994 147.398 98.3245C147.397 98.7496 147.057 99.3236 146.642 99.5998C146.083 99.9718 145.82 100.665 145.625 102.278C145.329 104.723 144.81 105.896 143.778 106.449C142.876 106.933 140.098 112.785 139.983 114.446C139.934 115.145 139.777 116.086 139.633 116.535C139.624 116.564 139.616 116.591 139.607 116.618L132.452 115.969C132.556 115.729 133.735 115.208 135.097 114.802C137.095 114.205 137.633 113.891 137.754 113.251C137.836 112.809 138.182 111.14 138.522 109.541C138.861 107.942 139.264 105.899 139.416 105C139.568 104.1 140.051 102.711 140.488 101.911C141.121 100.757 141.243 100.084 141.085 98.6391C140.928 97.2058 141.038 96.5896 141.601 95.7325C142.531 94.3181 142.506 94.0998 141.415 94.0998C140.917 94.0998 140.509 94.0071 140.509 93.8941C140.509 93.4988 141.357 92.0982 141.814 91.7381C142.23 91.4104 142.536 89.1945 142.859 84.1915C142.92 83.2381 143.153 82.2368 143.377 81.9665C143.601 81.6965 143.676 81.193 143.544 80.8478C143.411 80.5027 143.492 80.103 143.723 79.9602C144.228 79.6474 146.671 73.8593 146.671 72.976C146.671 72.6334 147.078 72.0321 147.575 71.6401C149.519 70.1079 151.001 65.5693 149.429 65.9646C148.005 66.3228 147.847 65.3949 149.147 64.3071C150.171 63.45 150.748 61.7729 150.024 61.7584C149.054 61.7384 148.709 61.0644 149.322 60.3853C150.125 59.4956 149.757 58.4939 148.626 58.4939C147.719 58.4939 147.481 57.8272 148.149 57.1576C150.863 54.4374 147.152 54.998 142.738 57.9751C141.87 58.56 140.677 59.3099 140.085 59.6409C139.493 59.9722 138.732 60.4951 138.392 60.8028C138.053 61.1105 137.453 61.4989 137.058 61.6657C135.24 62.4349 133.957 63.4896 133.624 64.4887C133.425 65.0882 132.67 66.2327 131.948 67.032C131.226 67.8313 130.369 68.9028 130.044 69.4125C127.666 73.1468 125.285 75.5004 125.285 74.1169C125.285 73.7172 125.409 73.3902 125.561 73.3902C125.911 73.3902 126.839 71.9202 126.625 71.7051C126.481 71.5612 123.836 72.9684 123.836 73.1886C123.836 73.238 124.082 73.775 124.384 74.3814C125.538 76.6994 124.821 77.01 121.223 75.75C118.576 74.8232 118.057 74.9053 118.042 76.2529C118.039 76.5283 117.615 77.918 117.099 79.3411C116.277 81.6123 115.604 84.7191 114.897 89.5051C114.707 90.7924 114.751 90.8862 115.435 90.6685C118.586 89.6661 116.546 108.31 112.951 113.37C112.592 113.876 112.277 114.257 112 114.492H110.981C110.364 113.617 110.09 110.605 109.869 104.636C109.574 96.6623 109.284 94.9543 108.516 96.6652C107.967 97.8874 107.847 101.13 108.322 101.93C109.418 103.774 107.471 110.894 105.225 113.258C104.681 113.83 104.272 114.219 104.135 114.492H102.718C103.95 114.042 103.667 113.324 102.453 112.19C101.835 111.614 101.725 111.047 101.725 108.437C101.725 105.947 101.622 105.363 101.181 105.363C100.53 105.363 100.467 104.589 101.069 103.985C101.307 103.747 101.488 102.709 101.473 101.679C101.458 100.648 101.671 99.2619 101.947 98.5988C102.558 97.135 102.601 95.1229 102.034 94.5546C101.724 94.244 101.72 93.6002 102.018 92.0295C102.816 87.8186 102.849 86.5277 102.169 86.136C101.578 85.796 101.578 85.7149 102.165 84.6638C102.873 83.3947 102.681 82.4733 101.708 82.4733C100.709 82.4733 100.57 81.932 101.32 80.9721C103.545 78.124 97.9764 76.0254 95.6534 78.8364C95.1673 79.425 93.7508 78.2261 93.7508 77.2262C93.7508 76.9824 93.0262 75.3478 92.1407 73.5937C90.8897 71.1154 90.4846 70.2655 90.1861 70.3013C90.0162 70.3217 89.8808 70.6287 89.6437 71.0856C89.3486 71.6539 88.6842 72.515 88.167 72.9993C87.6497 73.484 87.2264 74.0522 87.2264 74.2622C87.2264 74.4722 86.533 75.261 85.6859 76.0149C84.8388 76.7688 84.3614 77.3861 84.6253 77.3864C84.8895 77.3864 86.0458 76.4876 87.1956 75.3885C89.5991 73.0905 89.7636 73.0276 89.7636 74.4086C89.7636 75.2286 88.9158 76.2667 85.414 79.7335C83.0218 82.1017 81.0644 84.1577 81.0644 84.302C81.0644 84.4462 80.8056 84.7797 80.4892 85.0428C80.0807 85.3829 79.9756 85.869 80.1267 86.7221C80.2438 87.3826 80.4279 88.5365 80.5356 89.2857C81.0061 92.5509 81.8923 97.3421 82.3646 99.1718C83.3476 102.979 82.1631 106.451 80.9031 103.455C80.5515 102.62 80.3806 102.207 80.1846 102.194C79.9929 102.182 79.7773 102.554 79.3453 103.288C78.7497 104.299 78.6841 104.839 78.9157 106.809C79.2104 109.314 78.4583 112.189 77.0237 114.041C76.8939 114.208 76.7839 114.358 76.6942 114.492H75.7973C75.7786 113.958 75.5994 113.166 75.3135 112.009C74.9282 110.452 74.5096 108.524 74.3831 107.724C74.2566 106.925 74.0637 105.822 73.955 105.272C73.1576 101.239 71.9513 106.261 72.2801 112.248C72.296 112.538 72.0648 113.248 71.7664 113.826C71.6281 114.094 71.5228 114.312 71.4628 114.492H68.6617C68.7478 114.108 68.7436 113.582 68.7449 112.863C68.7507 109.643 67.5774 102.771 67.0558 102.971C66.2772 103.271 66.241 102.746 66.9489 101.423C67.7985 99.8338 67.821 99.5496 67.0982 99.5496C66.1362 99.5496 66.0648 98.4724 66.9634 97.5135C67.6278 96.8051 67.7097 96.5391 67.3356 96.3077C66.9641 96.0773 67.1091 95.6599 67.9794 94.4554C69.1012 92.9033 69.5467 90.4665 68.7086 90.4665C68.4495 90.4665 68.398 89.9691 68.559 89.0161C68.7844 87.6769 68.7286 87.5374 67.8275 87.194C66.8797 86.8325 66.8688 86.7965 67.4491 85.9093C68.1704 84.8055 67.9837 84.4382 66.3559 83.7562C64.8658 83.1324 62.2372 77.8624 60.6419 72.3002C59.8731 69.6204 58.905 68.9882 57.7067 70.3837C56.4268 71.874 56.1419 71.098 57.0506 68.5969C57.8832 66.3061 57.7737 64.9367 56.8926 66.6218C55.9107 68.5006 54.3405 66.3537 51.7278 59.561C50.7876 57.1162 48.4308 54.3363 45.2556 51.9268C43.6883 50.7375 42.9466 50.1653 42.5956 50.3467C42.273 50.5135 42.2804 51.3166 42.2804 52.8623C42.2804 54.6474 42.4218 55.5873 42.6904 55.5873C43.2964 55.5873 42.8669 62.5003 42.0811 65.3971C41.305 68.2582 41.5704 70.8618 42.7596 72.0539C43.3146 72.6102 43.5636 73.3314 43.5984 74.4802C43.6252 75.3794 43.9935 77.6684 44.4165 79.5667C44.8398 81.4651 45.5089 85.8795 45.9037 89.3765C46.9816 98.928 47.0712 99.5496 47.3644 99.5496C47.5134 99.5496 47.7425 100.267 47.8737 101.144C48.1057 102.694 49.6483 107.565 50.7274 110.153C51.1718 111.22 51.5317 111.501 52.8917 111.844C53.7888 112.071 54.6177 112.503 54.7334 112.806C54.8881 113.21 55.5047 113.356 57.0579 113.356C59.052 113.356 59.888 113.692 60.0218 114.598L47.9827 115.56C48.0522 115.406 48.0799 115.222 48.0799 115.002C48.0799 114.94 47.4695 114.775 46.7236 114.635C44.83 114.279 44.8297 114.279 45.3966 112.39C46.0385 110.253 46.0345 110.164 45.29 110.021C44.8612 109.938 44.5593 109.297 44.2932 107.905C43.9895 106.316 43.7821 105.93 43.2772 106.015C42.7096 106.11 42.47 105.713 42.603 104.899C42.6284 104.744 42.1057 103.599 41.4413 102.356C40.7769 101.112 39.6943 98.4597 39.036 96.4614C38.3774 94.4631 37.6148 92.3867 37.3411 91.8471C37.0674 91.3072 36.8434 90.4589 36.8434 89.9611C36.8434 89.4634 36.6767 88.9529 36.473 88.8265C35.8072 88.4141 33.3909 84.8706 32.6983 83.2908C31.5213 80.6062 29.1675 82.6968 27.9046 87.5483C27.6201 88.6412 27.2609 89.6221 27.1065 89.7282C26.4845 90.1562 25.607 93.1319 25.607 94.8122C25.607 95.7958 25.442 96.7023 25.2405 96.8272C25.039 96.9519 24.8987 97.4928 24.9288 98.0295C24.9589 98.5657 24.645 99.9039 24.2314 101.003C23.8178 102.102 22.958 105.045 22.3212 107.543C21.684 110.041 20.8579 112.867 20.4853 113.824C19.6005 116.094 19.4824 117.394 21.3748 117.908L8.53531 119.257C8.57408 119.132 8.57099 118.984 8.57099 118.799C8.57099 117.886 9.77874 117.326 13.7362 116.405C16.2894 115.811 17.4384 115.173 15.9548 115.173C15.4408 115.173 15.397 114.839 15.6166 112.605C15.7689 111.055 15.7272 109.866 15.5108 109.605C15.2697 109.314 15.36 108.58 15.7877 107.359C16.9259 104.107 16.9788 103.277 16.0991 102.456C15.3694 101.775 15.3444 101.605 15.7634 100.181C17.089 95.6726 17.2996 93.3731 16.3862 93.3731C15.4948 93.3731 15.3723 90.6198 15.9711 84.0331C16.3633 79.7154 16.4282 77.4882 16.1799 76.8338C15.663 75.4717 15.7363 73.4803 16.3865 71.1986C16.6982 70.1061 17.1002 68.2978 17.28 67.1806C17.4598 66.0634 17.7719 64.7144 17.9734 64.1832C18.2674 63.4079 18.234 63.2171 17.8048 63.2171C17.0988 63.2171 17.0973 61.3365 17.802 59.9701C18.7973 58.0408 18.9742 53.044 18.0473 53.044C17.102 53.044 17.0991 52.9921 17.9484 51.3037C18.8082 49.595 18.4834 42.9919 17.5131 42.4476C17.1071 42.2198 17.0107 41.7893 17.16 40.8679C17.3427 39.739 17.2771 39.601 16.5587 39.601C16.0574 39.601 15.6808 39.3263 15.563 38.8743C15.4586 38.4747 15.2491 38.1477 15.0972 38.1477C14.9453 38.1477 14.6068 37.6165 14.3451 36.9669C14.0838 36.3172 12.9572 34.5598 11.8423 33.0611C10.7269 31.5624 9.08642 29.2328 8.1962 27.8841C7.21899 26.4039 6.24178 25.3408 5.73034 25.2024C4.99054 25.0022 4.91225 24.8187 5.11233 23.7491C5.23847 23.0755 5.19461 22.5247 5.01483 22.5247C4.83504 22.5247 4.66722 22.0749 4.64185 21.5255C4.61612 20.9762 4.54797 19.3819 4.49034 17.9831C4.41277 16.1055 4.07785 14.7063 3.21047 12.6368C2.56455 11.0952 1.93385 9.08602 1.8088 8.17226C1.65403 7.04014 1.30933 6.29568 0.726844 5.83643ZM5.08225 10.5346C4.79082 9.43553 4.61285 8.08687 4.68643 7.53753C4.76037 6.98818 4.71326 6.53838 4.58132 6.53838C3.60701 6.53838 3.62332 8.81897 4.61431 11.064C5.58173 13.2563 5.75245 13.063 5.08225 10.5346ZM9.74538 26.5576C11.2685 28.6311 11.6686 27.3965 10.2191 25.0952C9.70624 24.281 9.12593 23.6147 8.92875 23.6147C8.21433 23.6147 8.59709 24.9946 9.74538 26.5576ZM15.8203 36.2867C15.8203 37.2561 17.4456 33.7703 17.6207 32.4253C17.6272 32.3755 17.5105 32.3621 17.3608 32.3955C17.2111 32.4293 16.4775 32.5209 15.7297 32.599C14.9823 32.6774 14.3705 32.7788 14.3705 32.8246C14.3705 32.87 14.6967 33.5487 15.0954 34.3328C15.4941 35.1168 15.8203 35.9961 15.8203 36.2867ZM175.306 35.0245C175.306 35.5939 175.941 35.1281 176.532 34.126C176.893 33.5127 177.109 32.931 177.012 32.8333C176.834 32.6553 175.306 34.6187 175.306 35.0245ZM34.2848 34.5144C34.4958 34.5144 34.6686 34.3509 34.6686 34.1511C34.6686 33.9513 34.5969 33.7878 34.5088 33.7878C34.4207 33.7878 34.2482 33.9513 34.1249 34.1511C34.0017 34.3509 34.0738 34.5144 34.2848 34.5144ZM20.7735 40.3276C20.9061 40.3276 21.9678 39.3572 23.1328 38.1713C24.2981 36.985 25.1274 35.9394 24.9759 35.8475C24.6142 35.6277 21.9823 36.7801 21.9823 37.1583C21.9823 37.3197 21.6561 37.8025 21.2573 38.2312C20.5694 38.9713 20.2566 40.3276 20.7735 40.3276ZM25.9745 45.4142C26.8749 44.2029 28.7213 40.1104 29.5658 37.453C30.2462 35.3119 29.73 35.814 27.9101 39.064C26.9423 40.7923 25.2311 43.6404 24.1071 45.3931C22.3853 48.0784 21.0362 51.5907 21.7267 51.5907C21.8203 51.5907 22.6017 50.4869 23.463 49.1383C24.3242 47.7896 25.4544 46.1136 25.9745 45.4142ZM19.7861 37.0577C19.9971 37.0577 20.1699 36.8942 20.1699 36.6944C20.1699 36.4945 20.0982 36.331 20.0101 36.331C19.922 36.331 19.7495 36.4945 19.6262 36.6944C19.503 36.8942 19.5751 37.0577 19.7861 37.0577ZM23.0697 40.4853C23.0697 41.2661 24.2274 40.3934 25.2122 38.87C25.8596 37.8683 26.3333 36.8808 26.2652 36.6751C26.0448 36.0128 23.0697 39.5606 23.0697 40.4853ZM169.506 39.6202C169.506 40.05 171.737 39.3368 172.367 38.7057C173.101 37.9707 172.802 37.8123 171.5 38.2461C170.275 38.6545 169.506 39.1842 169.506 39.6202ZM29.0732 47.6345C31.7653 44.0426 34.3062 39.6882 34.3062 38.6661C34.3062 36.4996 31.6696 39.5966 29.7985 43.9609C29.6699 44.2606 28.6067 46.2226 27.4363 48.3208C26.2656 50.419 25.3873 52.216 25.4844 52.3144C25.5816 52.4125 25.8125 52.2225 25.997 51.8919C26.1815 51.5613 27.5657 49.6455 29.0732 47.6345ZM39.3423 41.4176C39.7852 41.4176 40.3297 40.6481 40.5631 39.6918C40.8672 38.4463 40.3148 38.7166 39.6348 40.146C39.3021 40.8454 39.1705 41.4176 39.3423 41.4176ZM158.981 40.5456C157.475 38.3083 156.449 38.2563 156.478 40.4185C156.527 44.14 158.085 45.6874 159.44 43.3614C160.107 42.2169 160.107 42.2168 158.981 40.5456ZM29.22 54.134C31.7609 50.5163 35.4835 44.499 36.8057 41.8718C37.2335 41.0227 37.4575 40.3363 37.3038 40.3465C36.4368 40.4057 35.138 41.9277 33.0205 45.3655C31.712 47.4906 30.4463 49.5423 30.2081 49.9248C29.8453 50.5076 27.6223 53.6406 25.8788 56.0254C25.6294 56.3662 24.5286 57.9031 23.4322 59.4407C22.3357 60.9783 20.9087 62.7284 20.2606 63.3301C19.2188 64.2973 18.7038 65.3971 19.2921 65.3971C19.4077 65.3971 20.1007 64.7823 20.8325 64.0306C21.5647 63.2792 22.6017 62.4697 23.1375 62.2321C23.6732 61.9945 24.7156 60.8519 25.4536 59.6928C26.192 58.5338 27.8869 56.0324 29.22 54.134ZM166.688 42.4098C166.49 43.0566 169.792 41.7787 170.048 41.1095C170.159 40.8221 170.204 40.5431 170.149 40.4893C169.926 40.2699 166.815 41.9964 166.688 42.4098ZM21.2573 43.91C21.2573 44.669 22.1577 44.3311 22.5825 43.413C22.8131 42.9149 22.8946 42.5127 22.7638 42.5192C22.2984 42.5417 21.2573 43.5027 21.2573 43.91ZM30.4053 57.7672C33.338 53.5552 34.7817 51.0025 34.8745 49.8649C34.9274 49.2153 34.9282 48.6841 34.876 48.6841C34.3127 48.6841 23.6021 64.5985 23.9385 64.9356C24.5254 65.5242 26.3855 64.0517 27.6404 62.0058C28.3958 60.7738 29.6401 58.8663 30.4053 57.7672ZM36.4556 51.2274C36.655 51.2274 36.9924 50.9004 37.2059 50.5007C37.4553 50.0335 37.4647 49.7741 37.2313 49.7741C37.0319 49.7741 36.6945 50.1011 36.481 50.5007C36.2316 50.968 36.2222 51.2274 36.4556 51.2274ZM150.826 54.4973C151.011 54.4973 158.358 50.5138 158.602 50.2813C159.056 49.8486 158.279 49.8736 157.423 50.3191C156.875 50.6039 155.822 50.9433 155.083 51.073C152.812 51.4715 149.052 54.4973 150.826 54.4973ZM161.029 53.044C162.23 53.044 162.626 52.8507 163.3 51.937C164.658 50.096 164.123 49.7014 162.118 51.0653C159.451 52.8791 159.361 53.044 161.029 53.044ZM155.694 53.0229C154.702 53.8502 155.19 54.0213 156.25 53.218C156.634 52.9267 156.861 52.6007 156.754 52.4936C156.648 52.3867 156.17 52.6247 155.694 53.0229ZM37.7068 58.0586C38.7917 57.3458 38.9559 57.0235 39.1386 55.2516C39.4014 52.6978 39.3115 52.6465 37.9243 54.5543C35.7198 57.5867 34.9307 59.5839 35.9373 59.5839C36.2363 59.5839 36.481 59.4218 36.481 59.2238C36.481 59.0258 37.0326 58.5015 37.7068 58.0586ZM30.0164 62.8411C31.2415 62.5021 34.1757 58.8823 35.1293 56.5337C35.6632 55.2192 35.108 55.5724 32.3742 58.286C28.2066 62.4229 27.6516 63.4954 30.0164 62.8411ZM19.084 61.4913C19.0815 62.017 19.3569 61.7511 20.3081 60.3105C20.8358 59.5112 21.0997 58.8572 20.8945 58.8572C20.5288 58.8572 19.0865 60.9554 19.084 61.4913ZM156.821 61.1327C156.82 61.5095 159.408 60.4064 160.069 59.7484C160.535 59.2848 160.535 59.2252 160.069 59.2598C159.367 59.3121 156.822 60.7792 156.821 61.1327ZM38.4532 60.6738C38.7638 60.6738 39.0182 60.5103 39.0182 60.3105C39.0182 60.1107 38.8649 59.9472 38.6772 59.9472C38.4894 59.9472 38.2353 60.1107 38.1121 60.3105C37.9888 60.5103 38.1425 60.6738 38.4532 60.6738ZM134.347 62.1271C134.546 62.1271 134.71 61.9636 134.71 61.7638C134.71 61.564 134.546 61.4005 134.347 61.4005C134.148 61.4005 133.985 61.564 133.985 61.7638C133.985 61.9636 134.148 62.1271 134.347 62.1271ZM108.888 66.8504C109.918 66.8504 110.44 66.0569 110.327 64.6628C110.199 63.0805 108.615 62.7252 108.607 64.2769C108.604 64.7932 108.504 65.5834 108.384 66.0329C108.21 66.6807 108.315 66.8504 108.888 66.8504ZM153.195 67.032C154.392 65.8454 155.37 64.7471 155.37 64.5908C155.37 63.2287 152.189 65.1413 151.901 66.676C151.771 67.3757 151.519 68.0381 151.342 68.1474C151.165 68.2568 151.021 68.5362 151.021 68.768C151.021 68.9998 151.999 68.2186 153.195 67.032ZM129.412 67.9403C129.688 67.9403 130.181 67.5316 130.508 67.032C131.141 66.063 131.017 65.978 129.726 66.4983C128.837 66.8565 128.601 67.9403 129.412 67.9403ZM110.898 69.733C113.256 69.1324 114.024 68.4541 113.121 67.7703C112.085 66.9844 111.461 67.0894 109.771 68.3353C107.44 70.0531 107.816 70.5185 110.898 69.733ZM24.1571 68.667C24.3564 68.667 24.5196 68.5035 24.5196 68.3037C24.5196 68.1038 24.3564 67.9403 24.1571 67.9403C23.9577 67.9403 23.7946 68.1038 23.7946 68.3037C23.7946 68.5035 23.9577 68.667 24.1571 68.667ZM29.8631 71.1056C30.2614 70.4295 30.8718 69.4405 31.2198 68.9082C31.9012 67.8651 31.347 67.5374 30.3817 68.4127C27.8394 70.7176 27.2395 71.9689 28.5553 72.2228C28.9054 72.2904 29.4288 71.8432 29.8631 71.1056ZM94.5566 73.0912C94.8215 72.8256 94.765 72.5382 94.3695 72.1418C93.5822 71.3527 93.0567 71.4319 93.2847 72.306C93.5293 73.2431 94.0712 73.5777 94.5566 73.0912ZM74.2153 73.8407C73.8006 73.908 73.6665 73.7009 73.7473 73.1177C73.8832 72.1367 73.5538 72.0986 72.429 72.9662C71.595 73.6089 71.5932 73.6296 72.2242 74.9561C73.0333 76.6569 73.88 76.6823 74.3983 75.0215C74.743 73.9185 74.718 73.759 74.2153 73.8407ZM148.824 73.0269C149.035 73.0269 149.208 72.8634 149.208 72.6636C149.208 72.4637 149.137 72.3002 149.048 72.3002C148.96 72.3002 148.788 72.4637 148.665 72.6636C148.541 72.8634 148.613 73.0269 148.824 73.0269ZM114.502 74.6375C115.298 74.3886 115.845 73.848 115.856 73.2994C115.865 72.871 115.368 72.9778 114.492 73.5926C113.44 74.3312 113.446 74.9678 114.502 74.6375ZM108.34 76.2383C109.487 75.5789 110.424 74.8315 110.424 74.5779C110.424 74.3243 110.384 74.123 110.334 74.1303C110.184 74.1528 105.605 75.8249 104.534 76.2481C103.493 76.6598 103.31 77.1946 103.896 78.1134C104.203 78.5938 104.363 78.5861 105.25 78.048C105.803 77.7123 107.194 76.8981 108.34 76.2383ZM159.451 75.0582C159.542 75.1494 159.823 74.975 160.075 74.6706C160.361 74.3254 160.389 74.1169 160.148 74.1169C159.71 74.1169 159.199 74.8061 159.451 75.0582ZM147.161 76.9094C147.475 77.2233 148.513 76.2765 148.277 75.8924C148.168 75.7151 147.919 75.5702 147.726 75.5702C147.296 75.5702 146.859 76.6064 147.161 76.9094ZM115.499 77.9525C115.499 79.2572 116.049 79.0363 116.906 77.3868C117.72 75.8227 117.574 75.6079 116.305 76.4992C115.846 76.8211 115.499 77.4467 115.499 77.9525ZM83.2178 78.1134C83.4288 78.1134 83.6017 77.9499 83.6017 77.7501C83.6017 77.5503 83.5299 77.3868 83.4419 77.3868C83.3538 77.3868 83.1812 77.5503 83.058 77.7501C82.9348 77.9499 83.0069 78.1134 83.2178 78.1134ZM40.5471 83.2C41.0593 83.2 42.2638 80.2196 42.2725 78.9309C42.2776 78.1934 42.1014 77.7501 41.8038 77.7501C41.5417 77.7501 41.0535 78.2813 40.7186 78.9309C40.384 79.5805 39.9128 80.3871 39.6714 80.7239C39.2093 81.3692 39.8566 83.2 40.5471 83.2ZM160.173 78.8285C160.822 78.8361 161.17 78.6501 161.17 78.2951C161.17 77.6073 160.776 77.6037 159.88 78.2835C159.206 78.7943 159.218 78.8176 160.173 78.8285ZM157.682 83.9368C158.304 83.3588 159.221 82.5616 159.72 82.166C160.769 81.3321 160.615 80.8213 159.549 81.6021C159.157 81.8895 158.219 82.2913 157.466 82.4948C156.385 82.7865 156.095 83.0412 156.095 83.6985C156.095 85.0119 156.465 85.0675 157.682 83.9368ZM144.599 88.1474C144.894 88.4435 147.83 86.4358 148.044 85.7912C148.194 85.3414 147.701 85.3167 146.314 85.7037C145.363 85.9693 144.15 87.6972 144.599 88.1474ZM158.179 87.2169C158.951 86.5717 159.335 85.8526 158.697 86.2483C158.533 86.3497 157.962 86.2054 157.428 85.9278C156.466 85.4275 156.458 85.4341 156.458 86.673C156.458 88.0922 156.948 88.247 158.179 87.2169ZM160.082 87.6206C160.082 88.1343 160.718 87.9545 160.938 87.3782C161.053 87.0785 161.016 86.8333 160.856 86.8333C160.478 86.8333 160.082 87.2362 160.082 87.6206ZM17.1154 89.2864C17.384 90.2256 17.4094 90.2362 17.5421 89.4674C17.7711 88.1394 17.4685 86.8565 17.1136 87.6515C16.9574 88.0017 16.9581 88.7374 17.1154 89.2864ZM147.509 89.2483C147.914 89.6541 149.115 88.9631 149.508 88.098C149.733 87.6021 149.782 87.1966 149.616 87.1966C149.162 87.1966 147.286 89.0241 147.509 89.2483ZM18.4243 91.7777C18.5378 92.7351 19.8075 91.3814 19.8075 90.303C19.8075 90.0134 19.3374 90.0676 18.7817 90.4207C18.5059 90.5959 18.3529 91.1764 18.4243 91.7777ZM159.677 92.2831C159.876 92.2831 160.14 92.1196 160.264 91.9198C160.387 91.72 160.324 91.5565 160.125 91.5565C159.926 91.5565 159.662 91.72 159.539 91.9198C159.415 92.1196 159.478 92.2831 159.677 92.2831ZM159.522 95.9164C160.583 95.9164 161.532 94.9448 161.532 93.8596C161.532 92.4128 161.279 92.3104 160.804 93.5642C160.612 94.0689 160.208 94.5768 159.907 94.6931C159.422 94.8791 159.096 95.9164 159.522 95.9164ZM113.507 103.47C113.967 101.592 114.307 98.6831 114.141 98.048C113.603 95.9829 112.599 97.9386 112.599 101.054C112.599 103.801 113.1 105.133 113.507 103.47ZM78.7323 101.366C79.9205 101.366 80.0158 101.288 79.9103 100.395C79.7585 99.1086 79.205 98.9846 78.2343 100.02C77.1549 101.172 77.2266 101.366 78.7323 101.366ZM161.511 107.179C162.102 107.179 162.319 106.474 162.074 105.354C161.732 103.794 161.17 104.025 161.17 105.726C161.17 106.525 161.323 107.179 161.511 107.179ZM17.7875 114.278C17.4337 116.168 18.1347 115.633 18.7099 113.575C19.2312 111.708 19.0137 110.473 18.4247 111.955C18.2144 112.483 17.9277 113.529 17.7875 114.278Z" fill="#FBD300"/>
</svg>
