<svg width="136" height="120" viewBox="0 0 136 120" fill="none" xmlns="http://www.w3.org/2000/svg">
<path fill-rule="evenodd" clip-rule="evenodd" d="M68.156 1.28559C67.6908 1.75073 64.5206 2.25393 61.11 2.40382C48.0577 2.97721 29.3333 8.15555 29.3333 11.1926C29.3333 11.8302 27.9117 12.3513 26.1749 12.3513C24.0384 12.3513 21.5533 13.8894 18.4901 17.1097C16.0003 19.7268 13.4438 21.8681 12.8074 21.8681C11.4512 21.8681 6.73087 28.2075 6.73087 30.0287C6.73087 30.7163 5.43062 33.1943 3.8425 35.5354C-0.189058 41.4751 -1.05271 46.2811 1.27296 49.8297C2.31148 51.4166 3.16206 54.6274 3.16206 56.9673C3.16206 64.0716 11.1205 76.5898 15.6374 76.5898C16.6736 76.5898 18.9374 77.5177 20.6682 78.6514C22.7429 80.0111 26.1737 80.7141 30.7382 80.7141C34.8995 80.7141 37.6605 81.2257 37.6605 81.9977C37.6605 86.9655 58.8795 96.6393 66.2324 95.0239C70.9159 93.9949 74.5382 95.2891 74.5382 97.9919C74.5382 99.2053 75.8015 101.713 77.3445 103.562C81.0572 108.011 84.055 113.972 84.055 116.907C84.055 120.067 85.8168 120.998 87.6417 118.799C89.4558 116.614 87.3181 107.568 83.7814 102.465C82.3967 100.465 81.809 98.2679 82.2706 96.8142C83.1164 94.1483 85.2446 93.5737 85.2446 96.0112C85.2446 97.886 90.1826 102.761 92.0824 102.761C92.8152 102.761 93.5837 104.192 93.7907 105.941C94.2915 110.173 97.1406 111.095 97.1406 107.023C97.1406 104.227 97.5725 103.951 101.947 103.951C113.049 103.951 126.379 91.4586 123.939 83.3408C122.314 77.94 122.296 74.2106 123.895 74.2106C133.698 74.2106 139.462 54.9712 133.596 41.8261C132.055 38.3738 129.582 32.7982 128.101 29.4363C124.871 22.1036 120.502 17.1097 117.316 17.1097C116.034 17.1097 114.985 16.346 114.985 15.4121C114.985 13.2482 109.366 8.78247 106.643 8.78247C105.502 8.78247 103.874 7.9438 103.023 6.91956C99.0737 2.16115 71.7034 -2.2618 68.156 1.28559ZM91.873 6.86245C92.4797 8.24596 94.1654 9.89831 95.6179 10.5359C97.0704 11.1736 98.4135 12.5012 98.6038 13.4861C98.8572 14.8054 100.232 15.1837 103.829 14.9244C108.71 14.5723 108.71 14.5723 109.509 20.5988C110.226 26.0127 112.605 29.2722 112.605 24.8421C112.605 22.9387 114.021 22.4903 115.465 23.9344C115.947 24.4174 117.24 24.8183 118.338 24.8266C119.49 24.8361 120.837 26.3505 121.525 28.4109C122.181 30.3737 123.239 32.7827 123.877 33.7641C126.984 38.5463 125.861 44.5205 121.513 46.3382C116.692 48.3522 115.814 51.0657 120.351 49.9272C123.908 49.0338 130.449 53.2878 130.449 56.4926C130.449 59.9639 129.143 62.1956 127.485 61.5592C126.606 61.2213 125.578 61.9874 125.165 63.2864C124.098 66.6506 119.242 67.1206 112.196 64.5403C108.823 63.3055 105.394 62.5501 104.576 62.863C101.979 63.8527 102.954 61.8661 107.55 56.8055C116.027 47.4683 117.577 44.6121 118.262 37.0545C118.789 31.2421 118.596 29.9824 117.251 30.4308C116.337 30.7354 115.588 31.8715 115.584 32.9564C115.579 35.0667 114.891 35.2999 111.971 34.1793C109.263 33.1396 109.098 33.7832 110.507 39.9393C111.871 45.9016 109.755 51.6081 106.179 51.6081C105.293 51.6081 103.912 53.1915 103.11 55.1258C100.532 61.3498 86.4342 64.3749 86.4342 58.7041C86.4342 56.5854 84.4309 57.53 83.2342 60.2113C81.426 64.2643 65.3556 66.722 62.4518 63.3911C59.8418 60.3969 58.8235 60.529 59.2875 63.8016C59.4968 65.2743 60.872 67.0063 62.3448 67.6523C65.7649 69.1536 65.7149 71.2473 62.0878 78.4111C58.7379 85.0288 59.0484 86.4718 63.0205 82.7412C64.5324 81.3208 66.3252 80.1586 67.0056 80.1586C67.7658 80.1586 68.0287 77.9448 67.6873 74.4021C66.8331 65.5122 85.6181 62.8713 93.5171 70.7702C95.4895 72.7426 98.2363 74.2106 99.9529 74.2106C101.6 74.2106 103.331 74.8304 103.799 75.5881C104.382 76.5303 103.845 76.754 102.1 76.2971C100.295 75.8261 98.9381 76.4625 97.4535 78.4777C95.1373 81.6218 84.9781 82.8078 77.2148 80.8402C72.9893 79.7708 71.3596 82.7091 75.3316 84.2342C77.9702 85.2465 76.2738 86.5705 70.0843 88.3312C66.1575 89.447 64.4432 89.4494 62.3709 88.3407C60.9065 87.5567 56.7548 86.3314 53.1444 85.6189C42.5272 83.5204 44.7755 71.8599 55.802 71.8361C56.9464 71.8337 57.8838 71.2961 57.8838 70.6418C57.8838 67.8462 49.8777 70.3087 46.228 74.2272C44.7053 75.8618 43.5752 76.309 43.0637 75.4811C42.6259 74.7721 43.0696 73.3897 44.0499 72.4095C45.0301 71.4293 46.171 69.5604 46.5849 68.2554C46.9989 66.9504 47.9851 65.8834 48.7774 65.8834C50.9032 65.8834 54.3149 61.458 54.3149 58.7029C54.3149 56.9887 55.338 56.1025 57.9087 55.5886C62.0747 54.7546 62.867 53.8969 61.5049 51.6914C60.3879 49.8844 51.9357 50.9099 51.9357 52.8513C51.9357 53.4758 50.9484 53.9873 49.7409 53.9873C44.2557 53.9873 40.4965 43.4189 44.0511 37.9931C46.4338 34.3577 46.46 33.7641 44.245 33.7641C43.2873 33.7641 41.93 34.8348 41.2293 36.1433C39.3759 39.6074 37.6605 39.0555 37.6605 34.9954C37.6605 31.0875 40.3217 29.0057 45.3144 29.0057C49.0664 29.0057 49.4138 26.6777 45.6903 26.4945C37.2882 26.0817 31.7125 29.2924 31.7125 34.5433C31.7125 36.4859 30.8346 37.5078 28.7076 38.0419C27.054 38.4571 25.1376 39.8513 24.4476 41.1408C22.4693 44.8357 24.2608 45.1558 27.4799 41.6833C30.9274 37.9634 33.6468 37.6255 34.652 40.7923C35.0482 42.0402 36.0855 43.3356 36.9587 43.6699C37.9199 44.0387 38.586 46.3215 38.6491 49.468C38.749 54.4679 30.8619 59.2621 26.6567 56.7579C25.0686 55.8122 25.7122 51.5534 27.5489 50.8492C30.9214 49.5549 29.3202 48.6341 23.3841 48.4545C20.1139 48.3558 17.4373 48.7567 17.4373 49.3467C17.4373 49.9367 18.2093 50.4185 19.1539 50.4185C20.3221 50.4185 20.9859 52.0316 21.2357 55.4743C21.6354 61.0143 23.9206 61.6389 35.2813 59.312C42.7401 57.7846 45.3002 58.013 45.7474 60.2447C46.0496 61.7519 45.1979 62.5323 42.708 63.0295C40.1361 63.5446 38.8739 64.7604 37.783 67.776C36.1521 72.2858 33.4386 73.4064 34.5128 69.1274C35.1421 66.6173 34.8638 66.4556 30.6229 66.86C26.9279 67.2122 25.6919 66.7767 24.1526 64.5796C23.1069 63.0854 21.8947 62.2194 21.4593 62.6548C21.0228 63.0902 21.344 64.2631 22.1719 65.26C25.0508 68.7289 19.8581 67.2966 16.1644 63.6041C14.2563 61.696 12.3922 60.6253 12.0222 61.2249C10.7945 63.2115 9.166 62.3562 8.40465 59.3251C7.96331 57.5657 8.28925 55.5707 9.19811 54.4763C10.2402 53.2201 10.3354 52.3564 9.49075 51.8151C7.46486 50.5161 6.44895 45.7541 7.2662 41.393C8.29997 35.8852 10.4615 36.2313 10.1296 41.851C9.98323 44.3373 10.2604 47.0139 10.7458 47.799C12.3327 50.3662 13.8685 49.3051 13.8685 45.6435C13.8685 41.8177 15.892 37.346 18.3295 35.7864C20.3459 34.4969 20.2102 32.5745 18.1023 32.5745C13.6008 32.5745 15.4352 26.1388 20.4839 24.2199C22.1957 23.5692 23.3853 22.1619 23.3853 20.7879C23.3853 18.2493 26.7221 16.6386 29.6533 17.764C30.8596 18.2267 31.772 17.6069 32.2906 15.9748C33.5742 11.9266 45.9877 6.51389 45.9877 10.0018C45.9877 10.6394 45.4715 11.1617 44.8398 11.1617C43.5205 11.1617 40.7582 15.8463 41.5886 16.6755C41.8919 16.9788 44.151 15.863 46.6087 14.194C49.0676 12.5261 51.5384 11.1617 52.1023 11.1617C52.665 11.1617 53.1253 10.4443 53.1253 9.56879C53.1253 6.3188 59.4386 4.71046 61.2848 7.49056C63.1965 10.3694 65.0214 10.7358 65.0214 8.2412C65.0214 6.57456 72.7669 4.23581 74.0469 5.51582C74.3705 5.83939 73.5009 8.02589 72.1138 10.3753C70.6886 12.7914 69.8988 15.6096 70.2949 16.8599C70.785 18.4016 70.1521 19.5246 68.2107 20.5631C61.1123 24.3627 59.2244 37.3508 64.5883 45.4817C66.5536 48.4605 66.8379 43.2726 64.9167 39.5063C63.1489 36.041 62.8135 34.3066 63.7354 33.3846C64.4432 32.6768 65.0214 31.2279 65.0214 30.1644C65.0214 28.0279 69.1992 23.8274 72.4754 22.6699C74.1991 22.0608 74.4383 21.071 73.8102 17.1418C72.36 8.06751 88.3935 -1.05792 91.873 6.86245ZM85.2446 13.0757C85.2446 14.3902 84.4583 16.5042 83.4983 17.7747C82.5371 19.044 81.7341 21.2876 81.7139 22.7603C81.6925 24.2687 80.9347 25.4369 79.9782 25.4369C77.8251 25.4369 73.1463 31.285 74.0849 32.8041C74.4775 33.4382 75.9193 32.9016 77.3397 31.5931C78.7434 30.3012 80.962 29.0247 82.2706 28.7559C83.5792 28.4882 84.4868 27.5449 84.2882 26.6598C83.5161 23.2243 86.7364 18.3445 90.7298 16.9003C95.6251 15.1302 95.9558 13.5409 91.4305 13.5409C89.5986 13.5409 87.4573 12.8985 86.6721 12.1134C85.5622 11.0035 85.2446 11.2164 85.2446 13.0757ZM56.0994 17.3583C52.2474 18.7097 48.3669 21.6433 48.3669 23.2064C48.3669 23.7393 50.3155 22.8531 52.6971 21.2376C55.0775 19.6209 58.4239 18.291 60.1321 18.2814C61.8392 18.2707 64.0399 17.7437 65.0214 17.1097C67.5053 15.5049 60.8601 15.6905 56.0994 17.3583ZM90.2481 29.7433C90.0756 36.2611 91.4246 40.9017 93.4909 40.9017C94.0548 40.9017 94.2987 37.7243 94.0334 33.8414C93.7586 29.8265 94.0679 26.46 94.7507 26.0388C96.8908 24.7148 96.0224 23.0577 93.1876 23.0577C90.6442 23.0577 90.4098 23.5906 90.2481 29.7433ZM53.1253 33.7641C53.1253 34.4184 53.6607 34.9537 54.3149 34.9537C54.9692 34.9537 55.5046 34.4184 55.5046 33.7641C55.5046 33.1098 54.9692 32.5745 54.3149 32.5745C53.6607 32.5745 53.1253 33.1098 53.1253 33.7641ZM97.4011 39.0198C96.4483 41.1111 94.7614 42.0782 90.9749 42.7051C88.1496 43.1727 83.7838 44.5383 81.2713 45.741C76.1858 48.1749 72.159 46.9616 72.159 42.9942C72.159 41.8439 71.6237 40.9017 70.9694 40.9017C70.3151 40.9017 69.7798 42.5077 69.7798 44.4705C69.7798 46.4334 70.3151 48.0393 70.9694 48.0393C71.6237 48.0393 72.159 48.5747 72.159 49.2289C72.159 49.8832 70.8207 50.4185 69.185 50.4185C67.2959 50.4185 66.211 51.0895 66.211 52.2565C66.211 54.5822 73.1868 53.5008 78.634 50.3305C83.9325 47.2471 91.1712 46.1324 92.6035 48.1797C93.5207 49.4907 93.8787 49.5132 94.3724 48.2891C94.7126 47.4457 96.5197 45.3044 98.3873 43.5307C101.313 40.7554 101.57 40.0202 100.238 38.2453C98.8061 36.336 98.5991 36.3931 97.4011 39.0198ZM103.731 39.1173C103.177 41.0802 102.151 43.0585 101.453 43.5141C100.755 43.9685 100.582 44.7394 101.07 45.2271C102.748 46.9068 105.668 42.491 105.199 38.9805C104.741 35.5485 104.741 35.5485 103.731 39.1173ZM45.9877 43.6485C45.9877 47.8526 48.7619 52.7989 50.2727 51.2893C50.7723 50.7885 50.5487 49.7452 49.7743 48.9708C49.001 48.1964 48.3669 45.7969 48.3669 43.6378C48.3669 41.4787 47.8316 39.7121 47.1773 39.7121C46.5231 39.7121 45.9877 41.4834 45.9877 43.6485ZM130.449 47.4445C130.449 48.426 129.914 49.2289 129.26 49.2289C128.606 49.2289 128.07 48.426 128.07 47.4445C128.07 46.4631 128.606 45.6601 129.26 45.6601C129.914 45.6601 130.449 46.4631 130.449 47.4445ZM128.714 65.8037C128.283 66.502 127.36 67.073 126.665 67.073C125.875 67.073 125.966 66.3902 126.904 65.26C128.537 63.2936 129.994 63.7326 128.714 65.8037ZM104.866 66.9136C108.42 67.7606 110.241 71.1033 108.24 73.1043C107.202 74.1416 97.4285 71.3377 95.4954 69.4486C93.4659 67.4655 95.7868 64.3643 98.6419 65.2434C100.106 65.6954 102.907 66.446 104.866 66.9136ZM116.881 70.8226C117.346 71.5756 116.741 72.9139 115.534 73.7966C112.383 76.0997 111.67 75.7963 112.314 72.4262C112.906 69.3308 115.414 68.4505 116.881 70.8226ZM27.2515 72.6998C28.3959 73.0293 29.3333 73.7716 29.3333 74.3498C29.3333 76.2198 26.1011 75.4644 23.2199 72.921C20.7729 70.7619 20.717 70.549 22.7905 71.2723C24.0991 71.7279 26.1071 72.3703 27.2515 72.6998ZM117.364 82.9839C117.364 90.8472 116.014 94.3386 112.02 96.8071C107.956 99.3183 99.0119 100.068 97.7354 98.0026C97.331 97.3483 96.1544 96.813 95.1195 96.813C93.3196 96.813 90.1196 93.6285 90.0411 91.7572C90.0197 91.2659 91.609 90.865 93.5718 90.865C95.5347 90.865 97.1406 90.2714 97.1406 89.5469C97.1406 88.7344 95.9986 88.5144 94.1666 88.9747C92.5309 89.3852 91.1926 89.2353 91.1926 88.6405C91.1926 88.0469 92.9925 87.2237 95.1932 86.8109C97.3928 86.3981 100.153 85.0003 101.326 83.7036C102.497 82.4081 104.847 81.3101 106.544 81.2649C108.242 81.2185 110.702 80.7213 112.011 80.1586C116.36 78.2897 117.364 78.8191 117.364 82.9839ZM81.4034 90.6425C81.6663 91.4313 80.78 92.0546 79.3953 92.0546C76.9245 92.0546 76.1834 90.8055 77.7358 89.2543C78.8374 88.1515 80.824 88.9033 81.4034 90.6425Z" fill="#FBD300"/>
</svg>
